/* XPM */
static char *f53a7bdd94754a42c42d98caa5048501b71cruJ9JEPABD3Q[] = {
/* columns rows colors chars-per-pixel */
"32 32 151 2 ",
"   c #000000",
".  c #000009",
"X  c #0A0909",
"o  c #110400",
"O  c #0D111A",
"+  c #191817",
"@  c #171718",
"#  c #1A1A1A",
"$  c #210C01",
"%  c #301300",
"&  c #000023",
"*  c #000A27",
"=  c #0C0C24",
"-  c #001126",
";  c #252623",
":  c #2C282A",
">  c #32322D",
",  c #393830",
"<  c #6E0A0E",
"1  c #72080D",
"2  c #4B2E22",
"3  c #4B3024",
"4  c #493B2C",
"5  c #4A442D",
"6  c #46473A",
"7  c #474B43",
"8  c #4B4B43",
"9  c #505047",
"0  c #585846",
"q  c #59625D",
"w  c #646449",
"e  c #626351",
"r  c #666768",
"t  c #646465",
"y  c #6D6F71",
"u  c #6F7073",
"i  c #7F7F7E",
"p  c #727371",
"a  c #981A26",
"s  c #A41D27",
"d  c #AC1E2A",
"f  c #BD1E2D",
"g  c #BC2632",
"h  c #C01F2D",
"j  c #D51F26",
"k  c #CF2128",
"l  c #D52027",
"z  c #C12D37",
"x  c #DB3932",
"c  c #BE4C52",
"v  c #C24249",
"b  c #CA7579",
"n  c #E59410",
"m  c #E7961D",
"M  c #FBA21F",
"N  c #A5A57C",
"B  c #E1B954",
"V  c #FBB151",
"C  c #E2CA53",
"Z  c #DDD574",
"A  c #E1DD71",
"S  c #E7D868",
"D  c #EFEC6C",
"F  c #828383",
"G  c #86878A",
"H  c #87898B",
"J  c #8D8D8D",
"K  c #90908F",
"L  c #8F9090",
"P  c #9A9C9F",
"I  c #B1B392",
"U  c #9B9CA0",
"Y  c #A7A8AC",
"T  c #AAABAD",
"R  c #AAACB0",
"E  c #B1B3B6",
"W  c #BABCBF",
"Q  c #C8C793",
"!  c #F4D088",
"~  c #EEEC8A",
"^  c #EDE286",
"/  c #FCEE87",
"(  c #ECE69C",
")  c #F5E595",
"_  c #F5E8A8",
"`  c #C3C4C6",
"'  c #CDCDCD",
"]  c #CAD5C7",
"[  c #D0DACC",
"{  c #CFD1D3",
"}  c #D1D2D4",
"|  c #D5D7D8",
" . c #D9DBDC",
".. c #FFD8D8",
"X. c #D4E7CE",
"o. c #D6E9CE",
"O. c #CFE3D7",
"+. c #CFE5DB",
"@. c #D1E5D7",
"#. c #D6EAD5",
"$. c #DEE8D5",
"%. c #D2E7DB",
"&. c #D3E8DF",
"*. c #DFEBDC",
"=. c #D8E3D2",
"-. c #E5E3C8",
";. c #E7EECA",
":. c #EAEACB",
">. c #EDF0C4",
",. c #FBFFCF",
"<. c #E5EED3",
"1. c #EDECD7",
"2. c #E1ECDE",
"3. c #ECECDA",
"4. c #E6F1D4",
"5. c #E5F0DE",
"6. c #EEF1DC",
"7. c #EAF4D4",
"8. c #F3F1D1",
"9. c #FAF8D5",
"0. c #F5F4DE",
"q. c #F8F7DE",
"w. c #F4FADE",
"e. c #FAF9DD",
"r. c #DDDFE1",
"t. c #D2E8E0",
"y. c #DFEBE0",
"u. c #E2EDE0",
"i. c #EBEEE0",
"p. c #E6E8EA",
"a. c #E9EAEA",
"s. c #E1E3E5",
"d. c #F4EBEB",
"f. c #E4F0E2",
"g. c #ECF1E1",
"h. c #F5F5E3",
"j. c #F8F7E3",
"k. c #FBFBE5",
"l. c #FBFAE8",
"z. c #EFF1F2",
"x. c #F3F3F3",
"c. c #FAF9F9",
"v. c #FCF9F9",
"b. c #FDFBFB",
"n. c #FEFAFA",
"m. c #FDFDFD",
"M. c #FEFEFE",
"N. c white",
"B. c #FFFFFF",
"V. c #FDFEFE",
"C. c #FFFFFF",
/* pixels */
"y.*.h.h.h.h.u.2.2.+.h.j.j.  8 >   $.j.q.e.q.2.2.<.#.e.q.k.k.e.e.",
"h.i.h.h.h.3.2.2.2.2.O.2.              e.e.6.<.2.2.2.#.e.k.q.e.e.",
"h.h.h.h.h.h.h.2.2.[ 2.2.              e.e.e.e.h.2.2.2.<.k.k.e.e.",
"h.2.u.h.h.h.h.2.2.2.2.2.              q.e.e.e.h.h.2.2.2.w.e.e.e.",
"h.*.2.h.h.h.h.2.2.2.2.2.< 1 1 k j l 1 -.:.e.e.4.h.2.2.2.2.7.e.e.",
"h.3.h.h.h.g.h.h.2.2.8                   8 8.8.e.e.e.2.2.2.2.2.X.",
"+.%.h.h.h.h.h.j.j.2.        P U P P #     e.h.e.e.e.e.2.2.2.2.2.",
"%.%.%.%.h.h.h.h.h.0.2.  t x.c.V.V.c.V.  8.e.e.e.e.e.e.e.2.2.2.2.",
"3.%.%.%.$.h.h.0.0.1.X H V.V.  V.V.  c.b.  h.e.e.e.e.e.e.e.2.2.2.",
"3.3.% %.%.2.h.0.0.1.X T V.V.c...x b.b.V.X ;.e.e.e.e.e.e.e.e.2.2.",
"3.% 3.%.%.%.%.h.0.0.X T V.  V.V.V.V.  V.  2.2.l.e.e.e.e.e.e.e.h.",
"% 3.3.3.3.%.%.%.j.q.X T V.V.        V.V.  2.2.2.l.e.e.e.e.e.e.e.",
"h.% % 3.3.=.3.@.j.  a s f f V.b.V.V.h z f   2.2.2.2.e.h.e.e.e.e.",
"% 3.h.% % $.3.% % T } f h c v h g h h b V.o $ 2.2.2.2.2.h.e.e.e.",
"h.h.h.h.h.% %   G ` V.f h V.x.@ V.V.b.V.V.V.$ $ e.2.2.2.2.2.e.e.",
"f.u.j.j.j.j.2.  T d.f f d V.b.V.V.V.V.V.V.$ $ $ h.h.2.2.2.2.e.e.",
"f.f.l.l.j.l.g.  T  .b.b.d V.V.e ,.0 # $ $ $ }   e.h.h.2.2.2.2.l.",
"j.g.j.j.j.0.5.; y W z.V.V.,.,.,.w ; +   Q ,.e 2.<.<.h.h.2.2.2.2.",
"h.h.h.h.h.0.0.2.  R p.V.V.,.: * - & & O . N e 2.2.<.<.h.2.2.2.2.",
"h.*.*.h.h.h.h.  r J i p.V.,.^ m 2 M V 3 n ( e 2.2.2.2.h.h.2.2.2.",
"h.2.2.h.h.j.8 J ` } } L I I Z B 4 ! _ 4 B ( ' 6 2.2.2.2.<.<.<.h.",
"h.g.j.j.j.<.X T } s.p.{ >.>.A C 5 ) ) 5 C ( ,.6 2.2.2.2.2.<.<.h.",
"t.&.j.j.h.  T {  .z.V.V.,.,.D S 5 / / 5 S ~ ,.,.  l.2.2.2.2.2.<.",
"2.2.2.h.h.  T { p.V.V.V.,.,.& & & & & & = , ,.,.  l.2.2.2.2.2.2.",
"*.*.+.+.$.  T { p.V.V.V.,.,.,.e ,.,.,.,.,.,.,.V.  l.h.2.2.2.2.2.",
"h.*.*.*.%.  Y { p.V.V.V.V.,.,.,.,.,.,.,.,.,.,.V.  l.h.2.2.2.2.2.",
"h.h.h.2.2.  Y {  .x.V.V.V.V.V.  V.c.V.V.V.V.V.V.  l.l.h.h.h.2.2.",
"h.h.h.h.2.    E } | a.V.V.V.V.V.c.c.V.V.V.V.V.F   l.l.h.h.h.h.2.",
"h.h.h.h.h.2.  G ` } r.x.V.V.V.V.V.V.V.V.V.V.'   :.2.2.2.2.2.h.h.",
"h.g.h.h.h.2.2.  u W }  .x.V.V.V.V.V.V.V.T T   X.9.2.2.2.2.2.2.9.",
"h.h.h.h.h.*.*.] q p F F `  .a.a.a.K J J     <.4.X.<.2.2.2.2.2.2.",
"*.*.h.h.h.*.*.*.%.        > 9   7       q.<.4.4.X.<.<.<.2.2.2.2."
};
