/* XPM */
static char * pupazzodestra_xpm[] = {
"32 32 581 2",
"  	c None",
". 	c #DFEBE0",
"+ 	c #DFEBDF",
"@ 	c #F4F4E5",
"# 	c #F4F3E4",
"$ 	c #F4F4E4",
"% 	c #F6F5E5",
"& 	c #E2EEE0",
"* 	c #E2EEDF",
"= 	c #E1ECDD",
"- 	c #CFE5DA",
"; 	c #F6F5E3",
"> 	c #F8F7E4",
", 	c #F8F8E4",
"' 	c #000000",
") 	c #4C4C45",
"! 	c #34332E",
"~ 	c #DEE8D5",
"{ 	c #FAF9E1",
"] 	c #F8F7DF",
"^ 	c #F9F8DF",
"/ 	c #F8F7DE",
"( 	c #E3EED7",
"_ 	c #E1ECD4",
": 	c #E3EDD6",
"< 	c #D8ECD9",
"[ 	c #F9F8DD",
"} 	c #F8F7DD",
"| 	c #FFFFE4",
"1 	c #FFFFE6",
"2 	c #F9F8DE",
"3 	c #F5F5E6",
"4 	c #EBEEE0",
"5 	c #F5F4E5",
"6 	c #EAEDDD",
"7 	c #E0ECDD",
"8 	c #E3EFDF",
"9 	c #E1EDDD",
"0 	c #CFE3D7",
"a 	c #010101",
"b 	c #F7F6DE",
"c 	c #EFF2D8",
"d 	c #E4EED6",
"e 	c #E2EDD4",
"f 	c #E2ECD3",
"g 	c #E8F3DA",
"h 	c #D6EAD5",
"i 	c #F9F8DC",
"j 	c #F7F9DE",
"k 	c #FAF9DD",
"l 	c #FAF9DE",
"m 	c #F6F5E7",
"n 	c #F6F5E6",
"o 	c #F5F5E5",
"p 	c #F5F4E4",
"q 	c #F5F4E3",
"r 	c #F4F4E2",
"s 	c #E0EBDC",
"t 	c #E2EDDE",
"u 	c #D0DACC",
"v 	c #040404",
"w 	c #020202",
"x 	c #F5F4DB",
"y 	c #F9F8DB",
"z 	c #E3EED3",
"A 	c #E1EBD1",
"B 	c #EAF4D9",
"C 	c #D7EBD4",
"D 	c #E5F0D4",
"E 	c #FFFFE3",
"F 	c #FFFFE1",
"G 	c #FAF9DC",
"H 	c #FBFADD",
"I 	c #E0ECDF",
"J 	c #E1ECE0",
"K 	c #F6F6E5",
"L 	c #F6F5E4",
"M 	c #F5F5E3",
"N 	c #E0EBDB",
"O 	c #0D0D0D",
"P 	c #000101",
"Q 	c #E2ECD4",
"R 	c #F6F5D9",
"S 	c #FBFADC",
"T 	c #FAF9DB",
"U 	c #E5EFD2",
"V 	c #E1ECCF",
"W 	c #EBF6D8",
"X 	c #D9ECD3",
"Y 	c #D8EBD2",
"Z 	c #F0FADD",
"` 	c #FFFEDE",
" .	c #FBFADB",
"..	c #FDFBDD",
"+.	c #F3F3E4",
"@.	c #DFEADE",
"#.	c #E0EBDE",
"$.	c #F7F6E5",
"%.	c #F7F6E4",
"&.	c #F6F6E3",
"*.	c #E1ECDC",
"=.	c #E0ECDB",
"-.	c #E0EBDA",
";.	c #070707",
">.	c #6E0A0E",
",.	c #71080C",
"'.	c #72080D",
").	c #CF2128",
"!.	c #D51F26",
"~.	c #D52027",
"{.	c #E5EFD5",
"].	c #E5E3C8",
"^.	c #EBEACD",
"/.	c #F9F8D9",
"(.	c #FBFADA",
"_.	c #E6F0D1",
":.	c #E3EDCD",
"<.	c #EBF5D5",
"[.	c #E9F3D3",
"}.	c #D9EDD1",
"|.	c #E4F7DB",
"1.	c #EAF4D4",
"2.	c #FCFBD9",
"3.	c #FCFBDA",
"4.	c #E9ECDE",
"5.	c #F4F3E3",
"6.	c #F4F4E3",
"7.	c #EDF0DF",
"8.	c #F7F7E4",
"9.	c #F7F6E3",
"0.	c #E2EDDB",
"a.	c #E1ECDA",
"b.	c #E1ECD9",
"c.	c #AC141B",
"d.	c #9E161C",
"e.	c #A11319",
"f.	c #120304",
"g.	c #030303",
"h.	c #F4F2D1",
"i.	c #FBFAD6",
"j.	c #E5EECC",
"k.	c #EAF4D1",
"l.	c #EBF4D1",
"m.	c #E9F3D0",
"n.	c #F5FFDC",
"o.	c #E9F3D1",
"p.	c #DCEFD1",
"q.	c #D7EACD",
"r.	c #CEE4DC",
"s.	c #F4F3E2",
"t.	c #F5F4E2",
"u.	c #F8F7E3",
"v.	c #E3EEDB",
"w.	c #6F0509",
"x.	c #020101",
"y.	c #999B9E",
"z.	c #9B9CA0",
"A.	c #9A9C9F",
"B.	c #191A1A",
"C.	c #DEDDC1",
"D.	c #FAF9D4",
"E.	c #FDFCD5",
"F.	c #FBF9D1",
"G.	c #E8F2CC",
"H.	c #EDF6CF",
"I.	c #EBF5CE",
"J.	c #F9FFDC",
"K.	c #EBF4CF",
"L.	c #EDF6D1",
"M.	c #E3ECC9",
"N.	c #DFEADD",
"O.	c #DFEADC",
"P.	c #301300",
"Q.	c #F4F3E1",
"R.	c #F4F3E0",
"S.	c #F5F5E0",
"T.	c #F7F6E1",
"U.	c #646465",
"V.	c #F4F4F4",
"W.	c #F9F9F9",
"X.	c #FDFDFD",
"Y.	c #FEFFFE",
"Z.	c #FCFDFD",
"`.	c #F1F0D1",
" +	c #FFFDD4",
".+	c #FFFED3",
"++	c #FDFBCF",
"@+	c #F9F8CB",
"#+	c #FFFFD3",
"$+	c #EEF7CC",
"%+	c #FBFFDA",
"&+	c #EDF6CC",
"*+	c #EDF6CD",
"=+	c #E6EFC8",
"-+	c #D0E5DB",
";+	c #DFEBDB",
">+	c #F4F4E1",
",+	c #F5F4E0",
"'+	c #F5F4DF",
")+	c #F5F4DE",
"!+	c #EDECD7",
"~+	c #87898B",
"{+	c #FFFFFF",
"]+	c #FEFEFE",
"^+	c #FBF8F8",
"/+	c #FCF9F9",
"(+	c #F4F2CC",
"_+	c #FFFFD5",
":+	c #FFFFD0",
"<+	c #FFFDCD",
"[+	c #F8F7C5",
"}+	c #FFFFCF",
"|+	c #FFFFD9",
"1+	c #FAF8C9",
"2+	c #EAF2C7",
"3+	c #DCE8DA",
"4+	c #D1E6DB",
"5+	c #F5F5E1",
"6+	c #EBEED8",
"7+	c #A9ABAE",
"8+	c #FDFEFE",
"9+	c #FBFBFB",
"0+	c #DB3932",
"a+	c #DD5652",
"b+	c #DF6460",
"c+	c #0C0A0A",
"d+	c #E7EECA",
"e+	c #FDFCCB",
"f+	c #FFFFCD",
"g+	c #FEFEC9",
"h+	c #F3F4BD",
"i+	c #FEFECC",
"j+	c #FEFECB",
"k+	c #FEFECF",
"l+	c #F2F3BF",
"m+	c #F1EFBC",
"n+	c #FDFDCC",
"o+	c #D2E7DB",
"p+	c #F6F6DF",
"q+	c #F6F5DE",
"r+	c #080808",
"s+	c #E0EEC8",
"t+	c #E4F5C5",
"u+	c #FCFCCC",
"v+	c #F8F8C2",
"w+	c #FFFFBF",
"x+	c #FBFBC7",
"y+	c #EDEDBA",
"z+	c #CFCD9F",
"A+	c #F7F7C0",
"B+	c #FEFDC2",
"C+	c #C0BD94",
"D+	c #D4E7DB",
"E+	c #F8F7E0",
"F+	c #FEFDFD",
"G+	c #EAF2C3",
"H+	c #EBFBC6",
"I+	c #EDF4B6",
"J+	c #FEFEBF",
"K+	c #FFFFBA",
"L+	c #BDBD91",
"M+	c #585846",
"N+	c #1B1A19",
"O+	c #210C01",
"P+	c #9C997B",
"Q+	c #F3F2E2",
"R+	c #F3F2E1",
"S+	c #F3F3E0",
"T+	c #EDECDA",
"U+	c #D8E3D2",
"V+	c #D1E5D7",
"W+	c #F8F6E0",
"X+	c #981A26",
"Y+	c #A41D27",
"Z+	c #B91F2C",
"`+	c #BF1E2E",
" @	c #FDFCFC",
".@	c #FDFBFB",
"+@	c #C01F2D",
"@@	c #C12D37",
"#@	c #BC1E2C",
"$@	c #E8EFB5",
"%@	c #F1FDBD",
"&@	c #CECE97",
"*@	c #DBDB9A",
"=@	c #646449",
"-@	c #242423",
";@	c #191817",
">@	c #4E4D34",
",@	c #C8C793",
"'@	c #CCCA92",
")@	c #F3F3E2",
"!@	c #E9ECDC",
"~@	c #F3F3E1",
"{@	c #F3F3DF",
"]@	c #DEEAD8",
"^@	c #DEEAD7",
"/@	c #A9AAAD",
"(@	c #D0D1D3",
"_@	c #BD1B2B",
":@	c #C01E2D",
"<@	c #BE4C52",
"[@	c #C24249",
"}@	c #BC2632",
"|@	c #CA7579",
"1@	c #110400",
"2@	c #FEFFBD",
"3@	c #311F18",
"4@	c #2C282A",
"5@	c #000A27",
"6@	c #001126",
"7@	c #000023",
"8@	c #000020",
"9@	c #0D111A",
"0@	c #000009",
"a@	c #A5A57C",
"b@	c #F5F5E4",
"c@	c #DFEAD9",
"d@	c #DFEAD8",
"e@	c #86878A",
"f@	c #C2C3C6",
"g@	c #BE1D2D",
"h@	c #F4F2F3",
"i@	c #171718",
"j@	c #FCFCFC",
"k@	c #EDE286",
"l@	c #E7961D",
"m@	c #4B2E22",
"n@	c #FBA21F",
"o@	c #FBB151",
"p@	c #4B3024",
"q@	c #E59410",
"r@	c #EFE599",
"s@	c #E4F0E2",
"t@	c #FAF9E7",
"u@	c #FAF9E6",
"v@	c #FAF9E5",
"w@	c #FAF9E4",
"x@	c #E4EFDD",
"y@	c #A7AAAE",
"z@	c #F4EBEB",
"A@	c #AB1E29",
"B@	c #FEFAFA",
"C@	c #E7E7E7",
"D@	c #DDD574",
"E@	c #E1B954",
"F@	c #493B2B",
"G@	c #F4D088",
"H@	c #F5E8A8",
"I@	c #483B2C",
"J@	c #E0B953",
"K@	c #EAE69D",
"L@	c #E5F0E2",
"M@	c #FBFAE8",
"N@	c #FBFBE7",
"O@	c #FCFBE7",
"P@	c #E8F3E0",
"Q@	c #A8AAAE",
"R@	c #D9DCDD",
"S@	c #FDFAFA",
"T@	c #FCFAFA",
"U@	c #AC1D2B",
"V@	c #D4D4D4",
"W@	c #E1DD71",
"X@	c #E2CA54",
"Y@	c #49412C",
"Z@	c #F5E596",
"`@	c #F5E593",
" #	c #49422B",
".#	c #E1C952",
"+#	c #F8F8E7",
"@#	c #EEF2E1",
"##	c #F9F8E6",
"$#	c #F9F9E6",
"%#	c #F0F3DF",
"&#	c #E5F0DE",
"*#	c #252723",
"=#	c #6D6F71",
"-#	c #BABCBE",
";#	c #EFF0F1",
">#	c #FFFEFF",
",#	c #FFFEFE",
"'#	c #ECED86",
")#	c #EFEC6C",
"!#	c #E8D868",
"~#	c #4B462F",
"{#	c #FBEE8D",
"]#	c #FCED81",
"^#	c #4B452D",
"/#	c #E6D767",
"(#	c #EEEC8A",
"_#	c #F5F4E1",
":#	c #E0EBD7",
"<#	c #AAACB0",
"[#	c #E6E8E9",
"}#	c #2A2A2A",
"|#	c #FAFAFA",
"1#	c #7F7F7E",
"2#	c #C3C373",
"3#	c #0C0C24",
"4#	c #393830",
"5#	c #DFEBDC",
"6#	c #F6F5E1",
"7#	c #F6F6E0",
"8#	c #666768",
"9#	c #8D8D8E",
"0#	c #FBFAFB",
"a#	c #F6F89A",
"b#	c #FFFF89",
"c#	c #FFFF7C",
"d#	c #FFFF70",
"e#	c #FFFF56",
"f#	c #FFFF7A",
"g#	c #FFFF8B",
"h#	c #FFFFA6",
"i#	c #FFFFAB",
"j#	c #E1ECDE",
"k#	c #F7F7E3",
"l#	c #4D4D45",
"m#	c #8A8B8D",
"n#	c #C2C4C6",
"o#	c #D0D2D4",
"p#	c #8F9090",
"q#	c #949595",
"r#	c #E8E9EB",
"s#	c #CECECE",
"t#	c #F5F5B9",
"u#	c #FFFF96",
"v#	c #FFFF84",
"w#	c #FFFF85",
"x#	c #FFFF8F",
"y#	c #FFFF9B",
"z#	c #FFFFAA",
"A#	c #FFFFB7",
"B#	c #F7F6E6",
"C#	c #EDF0E0",
"D#	c #F8F7E6",
"E#	c #E6E9D7",
"F#	c #0A090A",
"G#	c #E1E3E5",
"H#	c #E6E8EA",
"I#	c #CDD0D1",
"J#	c #DBDEDF",
"K#	c #DBDDDF",
"L#	c #DBDDDE",
"M#	c #D5D7D9",
"N#	c #DEE0E1",
"O#	c #E1E3E4",
"P#	c #F9FAFA",
"Q#	c #E4E4A2",
"R#	c #FCFEA3",
"S#	c #FCFF9B",
"T#	c #FFFF9D",
"U#	c #FFFFAD",
"V#	c #F4FFB4",
"W#	c #EAF8B5",
"X#	c #D2E8E0",
"Y#	c #D3E8DF",
"Z#	c #F8F7E5",
"`#	c #A7A8AC",
" $	c #CFD1D4",
".$	c #D9DBDD",
"+$	c #EFF1F2",
"@$	c #EDEFAA",
"#$	c #FFFFB3",
"$$	c #F6FBA9",
"%$	c #FFFFBB",
"&$	c #F7FDB2",
"*$	c #F7FEB8",
"=$	c #FCFFC4",
"-$	c #E1ECDF",
";$	c #F6F5E2",
">$	c #F8F8F8",
",$	c #EFEFB5",
"'$	c #FFFFC2",
")$	c #EFF6B2",
"!$	c #FEFFC2",
"~$	c #F2F9B9",
"{$	c #F4FBBF",
"]$	c #F1F8C0",
"^$	c #DFEBDE",
"/$	c #DFEBDD",
"($	c #CFE5DB",
"_$	c #DFEADA",
":$	c #CFD1D3",
"<$	c #EFEFB8",
"[$	c #FFFFC6",
"}$	c #FDFABD",
"|$	c #FFFFC9",
"1$	c #FFFFC5",
"2$	c #FFFEC7",
"3$	c #F0F8C6",
"4$	c #DEEADC",
"5$	c #A6A8AB",
"6$	c #FEFFFF",
"7$	c #E4E5B4",
"8$	c #FFFFCA",
"9$	c #FAF8C3",
"0$	c #FCFDCA",
"a$	c #FFFDCB",
"b$	c #FFFECF",
"c$	c #E2EEDE",
"d$	c #F0F1F2",
"e$	c #EAE9BD",
"f$	c #F9F7C7",
"g$	c #FDFBCC",
"h$	c #FDFBCE",
"i$	c #FDFBD0",
"j$	c #F7F7E6",
"k$	c #B1B3B6",
"l$	c #D0D2D3",
"m$	c #D5D7D8",
"n$	c #EAECEE",
"o$	c #808080",
"p$	c #F8F6CD",
"q$	c #F8F6CB",
"r$	c #E8F1C9",
"s$	c #F0F9D1",
"t$	c #FCFAD1",
"u$	c #FCFAD3",
"v$	c #F7F6E7",
"w$	c #848587",
"x$	c #C1C3C6",
"y$	c #DDDFE1",
"z$	c #F5F6F6",
"A$	c #CBCBCB",
"B$	c #E8EAC8",
"C$	c #FBFAD2",
"D$	c #F7F5CE",
"E$	c #E7F0CC",
"F$	c #EDF7D3",
"G$	c #FDFCD6",
"H$	c #FBF9D5",
"I$	c #ECF0E1",
"J$	c #F6F6E6",
"K$	c #6F7073",
"L$	c #BABCBF",
"M$	c #ADADAD",
"N$	c #AAAAAA",
"O$	c #D4E7CD",
"P$	c #F9F8D4",
"Q$	c #FCFBD7",
"R$	c #FAF8D4",
"S$	c #F6F5D1",
"T$	c #FFFEDA",
"U$	c #FFFDDB",
"V$	c #FAF8D6",
"W$	c #DFEADB",
"X$	c #CAD5C7",
"Y$	c #59625D",
"Z$	c #727371",
"`$	c #828383",
" %	c #C5C7C7",
".%	c #D8D9DA",
"+%	c #E9E9E9",
"@%	c #90908F",
"#%	c #8E8E8C",
"$%	c #E3EDD0",
"%%	c #E7F1D4",
"&%	c #D4E8CE",
"*%	c #FDFCDB",
"=%	c #F8F7D6",
"-%	c #ECEECE",
";%	c #F9F8D6",
">%	c #FFFDDD",
",%	c #F9F8D8",
"'%	c #D0E5DA",
")%	c #30302B",
"!%	c #505047",
"~%	c #474B43",
"{%	c #F7F6DA",
"]%	c #E4EED4",
"^%	c #E6F1D6",
"/%	c #E6F0D5",
"(%	c #D3E6CF",
"_%	c #FCFBDC",
":%	c #F7F6D7",
"<%	c #F5F4D5",
"[%	c #F8F7D8",
"}%	c #FDFCDE",
"|%	c #F0F3D6",
". + @ # $ % & * = - ; > , ' ) ! ' ~ { ] ^ / ( _ : < [ } | 1 2 ^ ",
"3 4 5 5 $ 6 7 * 8 9 0 ' ' ' a a ' ' b ^ 2 c d e f g h i | j k l ",
"m n n o p q r s t u v w w a w w a a x l [ k y z A B C D E F G H ",
"5 I J K % L M N N O ' a a ' a P ' ' Q R H S T U V W X Y Z `  ...",
"+.@.#.K $.%.&.*.=.-.;.a >.,.'.).!.~.{.].^./.(._.:.<.[.}.|.1.2.3.",
"+.4.5.6.L 7.8.9.0.a.b.c.d.e.e.f.a a w g.a ' h.i.j.k.l.m.n.o.p.q.",
"r.r.5.s.s.t.; u.u.v.' w.x.' y.z.A.A.B.a ' C.D.E.F.G.H.I.J.K.L.M.",
"@.N.O.P.s.Q.R.S.T.' a w U.V.W.X.Y.W.Z.' `.E. +.+++@+#+$+%+&+*+=+",
"P.#.P.-+;+>+,+'+)+!+v ~+{+]+' ]+]+' ^+/+' (+_+:+<+[+:+}+|+}+1+2+",
"% P.3+= 4+=.5+'+)+6+;.7+8+{+9+X.0+a+b+{+c+d+e+f+g+h+i+j+k+l+m+n+",
"o % P.= 9 o+o+T.p+q+r+7+8+' ]+{+{+{+' {+' s+t+u+v+w+x+y+z+A+B+C+",
"5.5.q P.P.P.D+v.E+] ;.7+X.{+' ' ' ' F+{+' G+H+I+J+K+L+M+N+O+P.P+",
"Q+R+R+S+T+U+P.V+W+' X+Y+Z+`+ @.@{+{++@@@#@' $@%@&@*@=@-@;@>@,@'@",
")@!@~@S+{@]@^@P.P./@(@_@:@<@[@+@}@+@+@|@{+1@2@3@4@5@6@7@8@9@0@a@",
"b@M q t.,+c@d@' e@f@{+g@+@{+h@i@j@]+.@{+{+{+' P.k@l@m@n@o@p@q@r@",
"s@& t@u@v@w@x@' y@z@`+`+A@{+B@{+]+]+{+{+{+{+C@' D@E@F@G@H@I@J@K@",
"s@L@M@M@N@O@P@w Q@R@S@T@U@{+{+' ]+{+{+{+{+{+V@' W@X@Y@Z@`@ #.#K@",
"+#@###$#v@%#&#*#=#-#;#>#{+,#{+{+X.{+{+{+{+{+' '#)#!#~#{#]#^#/#(#",
"q q t._#,+'+)+:#' <#[#]+{+{+{+{+}#|#{+{+]+1#' 2#7@7@7@7@7@7@3#4#",
"6.O.5#t.5+6#7#' 8#9#1#[#]+{+{+]+X.0#{+9+1#{+' a#b#c#d#e#f#g#h#i#",
"% j#j#%.k#u.l#m#n#o#o#p#1#1#1#1#1#1#1#q#r#]+s#' t#u#v#w#x#y#z#A#",
"B#C#D###$#E#F#7+o#G#H#I#J#K#L#M#N#K#O#K#P#{+{+' Q#R#S#T#h#U#V#W#",
"X#Y#D#Z#8.' `# $.$+${+{+{+{+{+' j@]+{+{+{+{+{+{+' @$#$$$%$&$*$=$",
"-$j#= ; ;$' `# $[#{+{+{+{+{+{+{+>$]+{+{+{+{+{+{+' ,$'$)$!$~${$]$",
"^$/$($- _$' `#:$H#{+{+{+{+{+{+{+' {+9+{+{+{+{+{+' <$[$}$|$1$2$3$",
"5.4$4$5#4+' 5$:$H#6${+{+{+{+{+{+{+W.]+{+{+{+{+{+' 7$8$9$8$0$a$b$",
"# p L t c$' 5$:$.$d${+{+{+{+{+' {+9+{+{+{+{+{+{+' e$<+f$g$_+h$i$",
"n B#B#j$* ' ' k$l$m$n$]+{+{+{+{+9+|#{+{+{+{+{+o$' p$i$q$r$s$t$u$",
"v$v$j$j$$.= ' w$x$o#y$z$]+{+{+{+{+{+{+{+{+{+A$' B$u$C$D$E$F$G$H$",
"v$I$J$% b@s N ' K$L$o#.$d${+{+{+{+{+{+{+M$N$' O$P$Q$R$S$P$T$U$V$",
"n 3 5 p q 5#W$X$Y$Z$`$`$ %.%+%+%+%@%#%#%' ' $%%%&%*%=%-%;%3.>%,%",
"+ @.$ $ 5.O.O.;+'%' ' ' ' )%!%' ~%' ' ' {%]%^%/%(%_%:%<%[%T }%|%"};
