/* XPM */
static char *_8d8cca5a5b2466bec3309df33d04001XacY1Yh4FVmCn7Ag[] = {
/* columns rows colors chars-per-pixel */
"32 32 150 2 ",
"   c #000000",
".  c #000009",
"X  c #0A0909",
"o  c #110400",
"O  c #0D111A",
"+  c #191817",
"@  c #171718",
"#  c #191A1A",
"$  c #301300",
"%  c #000023",
"&  c #000A27",
"*  c #0C0C24",
"=  c #001126",
"-  c #252623",
";  c #2B292A",
":  c #32322D",
">  c #393830",
",  c #6E0A0E",
"<  c #72080D",
"1  c #4B2E22",
"2  c #4B3024",
"3  c #493B2C",
"4  c #4A442D",
"5  c #444538",
"6  c #474B43",
"7  c #4D4D45",
"8  c #505047",
"9  c #585846",
"0  c #59625D",
"q  c #646449",
"w  c #666768",
"e  c #646465",
"r  c #6D6F71",
"t  c #6F7073",
"y  c #727371",
"u  c #7F7F7E",
"i  c #981A26",
"p  c #A41D27",
"a  c #AC1E2A",
"s  c #BD1E2D",
"d  c #BC2632",
"f  c #C01F2D",
"g  c #D51F26",
"h  c #CF2128",
"j  c #D52027",
"k  c #C12D37",
"l  c #DB3932",
"z  c #BE4C52",
"x  c #C24249",
"c  c #FF5757",
"v  c #CA7579",
"b  c #E59410",
"n  c #E7961D",
"m  c #FBA21F",
"M  c #A5A57C",
"N  c #E1B954",
"B  c #FBB151",
"V  c #E2CA53",
"C  c #DDD574",
"Z  c #E1DD71",
"A  c #E7D868",
"S  c #EFEC6C",
"D  c #828383",
"F  c #86878A",
"G  c #87898B",
"H  c #8D8D8D",
"J  c #90908F",
"K  c #8F9090",
"L  c #9A9C9F",
"P  c #949595",
"I  c #9B9CA0",
"U  c #A7A8AC",
"Y  c #AAABAD",
"T  c #AAACB0",
"R  c #B1B3B6",
"E  c #BABCBF",
"W  c #C8C793",
"Q  c #F4D088",
"!  c #EDE286",
"~  c #EEEC8A",
"^  c #FCED81",
"/  c #FBEE8D",
"(  c #ECE69C",
")  c #F5E595",
"_  c #F5E8A8",
"`  c #C3C4C6",
"'  c #CBCBCB",
"]  c #CAD5C7",
"[  c #D0DACC",
"{  c #CFD1D3",
"}  c #D0D2D4",
"|  c #D5D7D9",
" . c #DADCDD",
".. c #D4E7CE",
"X. c #D6E9CE",
"o. c #CFE3D7",
"O. c #CFE5DB",
"+. c #D1E5D7",
"@. c #D6EAD5",
"#. c #DEE8D5",
"$. c #D2E7DB",
"%. c #D3E8DF",
"&. c #DFEBDC",
"*. c #E5E3C8",
"=. c #E7EECA",
"-. c #EAEACB",
";. c #E4EED3",
":. c #EDECD7",
">. c #E1ECDE",
",. c #ECECDA",
"<. c #E6F1D4",
"1. c #E5F0DE",
"2. c #EEF1DC",
"3. c #EAF4D4",
"4. c #F3F1D1",
"5. c #FCFFD1",
"6. c #F5F4DE",
"7. c #F8F7DE",
"8. c #F4FADE",
"9. c #FAF9DD",
"0. c #DDDFE1",
"q. c #DEE0E1",
"w. c #D2E8E0",
"e. c #DFEBE0",
"r. c #E1E3E5",
"t. c #E2EDE0",
"y. c #EBEEE0",
"u. c #E6E8EA",
"i. c #E9EAEA",
"p. c #F4EBEB",
"a. c #E4F0E2",
"s. c #ECF1E1",
"d. c #F5F5E3",
"f. c #F8F7E3",
"g. c #FBFBE5",
"h. c #FBFAE8",
"j. c #EFF1F2",
"k. c #F3F3F3",
"l. c #F9F9F9",
"z. c #FBFBFB",
"x. c gray98",
"c. c #FBF8F8",
"v. c #FDFBFB",
"b. c #FDF9F9",
"n. c #FDFDFD",
"m. c #FEFEFE",
"M. c white",
"N. c #FFFEFE",
"B. c #FDFEFE",
"V. c #FFFFFF",
/* pixels */
"e.&.d.d.d.d.t.>.>.O.d.f.f.  7 :   #.f.7.9.7.>.>.;.@.9.7.g.g.9.9.",
"d.y.d.d.d.,.>.>.>.>.o.>.              9.9.2.;.>.>.>.@.9.g.7.9.9.",
"d.d.d.d.d.d.d.>.>.[ >.>.              9.9.9.9.d.>.>.>.;.g.g.9.9.",
"d.>.t.d.d.d.d.>.>.>.>.>.              7.9.9.9.d.d.>.>.>.8.9.9.9.",
"d.&.>.d.d.d.d.>.>.>.>.  , < < h g j < *.-.9.9.<.d.>.>.>.>.3.9.9.",
"d.,.d.d.d.s.d.d.>.>.>.< <                   4.9.9.9.>.>.>.>.>.X.",
"O.$.d.d.d.d.d.f.f.          L I L L #     9.d.9.9.9.9.>.>.>.>.>.",
"$.$.$.$.d.d.d.d.d.6.    e k.l.n.n.l.n.  4.9.9.9.9.9.9.9.>.>.>.>.",
",.$.$ $.&.d.d.6.6.:.X G n.n.  n.n.  l.v.  d.9.9.9.9.9.9.9.>.>.>.",
",.$ ,.$.$.>.d.6.6.:.X Y n.n.l.l.l c v.n.X =.9.9.9.9.9.9.9.9.>.>.",
",.$ ,.$.$.$.$.d.6.6.X Y n.  n.l.l.n.  n.  >.>.h.9.9.9.9.9.9.9.d.",
"$ ,.$ ,.,.$.$.$.7.7.X Y n.n.        n.n.  >.>.>.h.9.9.9.9.9.9.9.",
"d.d.,.$ $ $ ,.+.f.  i p s s n.v.n.n.f k s   >.>.>.>.9.d.9.9.9.9.",
"d.,.d.d.6.6.$ $ $ Y } s f z x f d f f v n.o $ $ $ >.>.>.d.9.9.9.",
"d.d.d.d.d.,.,.  F ` n.s f n.k.@ n.n.v.n.5.5.  9 9 $ $ 5.>.>.9.9.",
"a.t.f.f.f.f.>.  Y p.s s a n.v.n.n.n.n.5.5.5.q - + $ W 5.5.>.9.9.",
"a.a.h.h.f.h.s.  Y  .v.v.a n.n.  n.n.n.5.; & = % % O . M 5.>.>.h.",
"f.s.f.f.f.6.1.- r E j.n.n.n.n.n.n.n.5.5.! n 1 m B 2 b ( 5.5.>.>.",
"d.d.d.d.d.6.6.;.  T u.n.n.n.n.n.; l.5.5.C N 3 Q _ 3 N ( 5.5.>.>.",
"d.&.&.d.d.d.d.  w H u u.n.n.n.n.n.z.5.5.Z V 4 ) ) 4 V ( 5.5.>.>.",
"d.>.>.d.d.f.7 H ` } } K u u M M u u u P S A 4 / ^ 4 A ~ 5.5.;.d.",
"d.s.f.f.f.;.X Y } r.u.{ 0.0. .| q. .r.5.% % % % % % * > 5.5.;.d.",
"w.%.f.f.d.  Y {  .j.n.n.n.n.n.  n.n.n.5.5.5.5.5.5 5.5.5.5.5.>.;.",
">.>.>.d.d.  Y { r.n.n.n.n.n.n.n.l.n.n.n.5.5.5.5.5 5.5.5.5.5.>.>.",
"&.&.O.O.&.  Y { u.n.n.n.n.n.n.  n.n.l.n.n.n.n.n.  h.d.>.>.>.>.>.",
"d.&.&.&.$.  U { u.n.n.n.n.n.n.n.n.l.n.n.n.n.n.n.  h.d.>.>.>.>.>.",
"d.d.d.>.>.  U {  .k.n.n.n.n.n.  n.n.n.n.n.n.n.n.  h.h.d.d.d.>.>.",
"d.d.d.d.>.    R } | i.n.n.n.n.n.n.l.n.n.n.n.n.D   h.h.d.d.d.d.>.",
"d.d.d.d.d.>.  F ` } 0.k.n.n.n.n.n.n.n.n.n.n.'   -.>.>.>.>.>.d.d.",
"d.s.d.d.d.>.>.  y E }  .k.n.n.n.n.n.n.n.Y Y   X.5.>.>.>.>.>.>.5.",
"d.d.d.d.d.&.&.] 0 y D D ` | i.i.i.J H H     ;.<.X.;.>.>.>.>.>.>.",
"&.&.d.d.d.&.&.&.$.        : 8   6       7.;.<.<...;.;.;.>.>.>.>."
};
