/* XPM */
static char *_0a24533696349a88c30ff8734bff947rn8VPNVCZhvEooun[] = {
/* columns rows colors chars-per-pixel */
"32 32 152 2 ",
"   c #010101",
".  c #000009",
"X  c #0B0A0A",
"o  c #120402",
"O  c #0D111A",
"+  c #191817",
"@  c #171718",
"#  c #191A1A",
"$  c #301300",
"%  c #000023",
"&  c #000A27",
"*  c #0C0C24",
"=  c #001126",
"-  c #252623",
";  c #2B292A",
":  c #32322D",
">  c #393830",
",  c #6F0509",
"<  c #6E0A0E",
"1  c #72080D",
"2  c #4B2E22",
"3  c #4B3024",
"4  c #493B2C",
"5  c #4A442D",
"6  c #444538",
"7  c #474B43",
"8  c #4D4D45",
"9  c #505047",
"0  c #585846",
"q  c #59625D",
"w  c #646449",
"e  c #666768",
"r  c #646465",
"t  c #6D6F71",
"y  c #6F7073",
"u  c #7F7F7E",
"i  c #727371",
"p  c #9E161C",
"a  c #A11319",
"s  c #AC141B",
"d  c #981A26",
"f  c #A41D27",
"g  c #AC1E2A",
"h  c #BD1E2D",
"j  c #BC2632",
"k  c #C01F2D",
"l  c #D51F26",
"z  c #CF2128",
"x  c #D52027",
"c  c #C12D37",
"v  c #DB3932",
"b  c #BE4C52",
"n  c #C24249",
"m  c #FF5757",
"M  c #CA7579",
"N  c #E59410",
"B  c #E7961D",
"V  c #FBA21F",
"C  c #A5A57C",
"Z  c #E1B954",
"A  c #FBB151",
"S  c #E2CA53",
"D  c #DDD574",
"F  c #E1DD71",
"G  c #E7D868",
"H  c #EFEC6C",
"J  c #828383",
"K  c #86878A",
"L  c #87898B",
"P  c #8D8D8D",
"I  c #90908F",
"U  c #8F9090",
"Y  c #9A9C9F",
"T  c #949595",
"R  c #9B9CA0",
"E  c #A7A8AC",
"W  c #AAABAD",
"Q  c #AAACB0",
"!  c #B1B3B6",
"~  c #BABCBF",
"^  c #C8C793",
"/  c #F4D088",
"(  c #EDE286",
")  c #EEEC8A",
"_  c #FCEE87",
"`  c #ECE69C",
"'  c #F5E595",
"]  c #F5E8A8",
"[  c #C3C4C6",
"{  c #CBCBCB",
"}  c #CAD5C7",
"|  c #D0DACC",
" . c #CFD1D3",
".. c #D0D2D4",
"X. c #D5D7D9",
"o. c #DADCDD",
"O. c #D4E7CE",
"+. c #D6E9CE",
"@. c #CFE3D7",
"#. c #CFE5DB",
"$. c #D1E5D7",
"%. c #D6EAD5",
"&. c #DEE8D5",
"*. c #D2E7DB",
"=. c #D3E8DF",
"-. c #DFEBDC",
";. c #E5E3C8",
":. c #E7EECA",
">. c #EAEACB",
",. c #E4EED3",
"<. c #EDECD7",
"1. c #E1ECDE",
"2. c #ECECDA",
"3. c #E6F1D4",
"4. c #E5F0DE",
"5. c #EEF1DC",
"6. c #EAF4D4",
"7. c #F3F1D1",
"8. c #FCFFD1",
"9. c #F5F4DE",
"0. c #F8F7DE",
"q. c #F4FADE",
"w. c #FAF9DD",
"e. c #DDDFE1",
"r. c #DEE0E1",
"t. c #D2E8E0",
"y. c #DFEBE0",
"u. c #E1E3E5",
"i. c #E2EDE0",
"p. c #EBEEE0",
"a. c #E6E8EA",
"s. c #E9EAEA",
"d. c #F4EBEB",
"f. c #E4F0E2",
"g. c #ECF1E1",
"h. c #F5F5E3",
"j. c #F8F7E3",
"k. c #FBFBE5",
"l. c #FBFAE8",
"z. c #EFF1F2",
"x. c #F3F3F3",
"c. c #F9F9F9",
"v. c #FBFBFB",
"b. c #FBF8F8",
"n. c #FDFBFB",
"m. c #FDF9F9",
"M. c #FDFDFD",
"N. c #FEFEFE",
"B. c white",
"V. c #FFFEFE",
"C. c #FDFEFE",
"Z. c #FEFEFE",
/* pixels */
"y.-.h.h.h.h.i.1.1.#.h.j.j.  8 :   &.j.0.w.0.1.1.,.%.w.0.k.k.w.w.",
"h.p.h.h.h.2.1.1.1.1.@.              9.w.w.5.,.1.1.1.%.w.k.0.w.w.",
"h.h.h.h.h.h.h.1.1.|                 0.w.w.w.w.h.1.1.1.,.k.k.w.w.",
"h.1.i.h.h.h.h.1.1.X                 ,.0.w.w.w.h.h.1.1.1.q.w.w.w.",
"h.-.1.h.h.h.h.1.1.1.    < 1 1 z l x ,.;.>.w.w.3.h.1.1.1.1.6.w.w.",
"h.2.h.h.h.g.h.h.1.1.1.s p a a o             7.w.w.w.1.1.1.1.1.+.",
"#.*.h.h.h.h.h.j.j.1.  ,     Y R Y Y #     w.h.w.w.w.w.1.1.1.1.1.",
"*.*.*.*.h.h.h.h.h.      r x.c.M.M.c.M.  7.w.w.w.w.w.w.w.1.1.1.1.",
"2.*.$ *.-.h.h.9.9.<.  L M.M.  M.M.  c.n.  h.w.w.w.w.w.w.w.1.1.1.",
"2.$ 2.*.*.1.h.9.9.<.  W M.M.v.c.v m n.M.X :.w.w.w.w.w.w.w.w.1.1.",
"2.$ 2.*.*.*.*.h.9.9.X W M.  M.M.c.M.  M.  1.1.l.w.w.w.w.w.w.w.h.",
"$ 2.$ 2.2.*.*.*.j.0.  W M.M.        M.M.  1.1.1.l.w.w.w.w.w.w.w.",
"h.h.2.$ $ $ 2.$.j.  d f h h M.n.M.M.k c h   1.1.1.1.w.h.w.w.w.w.",
"h.2.h.h.9.9.$ $ $ W ..h k b n k j k k M M.o $ $ $ 1.1.1.h.w.w.w.",
"h.h.h.h.h.2.2.  K [ M.h k M.x.@ M.M.n.M.8.8.  0 0 $ $ 8.1.1.w.w.",
"f.i.j.j.j.j.1.  W d.h h g M.n.M.M.M.M.8.8.8.w - + $ ^ 8.8.1.w.w.",
"f.f.l.l.j.l.g.  W o.n.n.g M.M.  M.M.M.8.; & = % % O . C 8.1.1.l.",
"j.g.j.j.j.9.4.- t ~ z.M.M.M.M.M.M.M.8.8.( B 2 V A 3 N ` 8.8.1.1.",
"h.h.h.h.h.9.9.,.  Q a.M.M.M.M.M.; c.8.8.D Z 4 / ] 4 Z ` 8.8.1.1.",
"h.-.-.h.h.h.h.  e P u a.M.M.M.M.M.v.8.8.F S 5 ' ' 5 S ` 8.8.1.1.",
"h.1.1.h.h.j.8 P [ ....U u u C C u u u T H G 5 _ _ 5 G ) 8.8.,.h.",
"h.g.j.j.j.,.X W ..u.a. .e.e.o.X.r.o.u.8.% % % % % % * > 8.8.,.h.",
"t.=.j.j.h.  W  .o.z.M.M.M.M.M.  M.M.M.8.8.8.8.8.6 8.8.8.8.8.1.,.",
"1.1.1.h.h.  W  .u.M.M.M.M.M.M.M.c.M.M.M.8.8.8.8.6 8.8.8.8.8.1.1.",
"-.-.#.#.-.  W  .a.M.M.M.M.M.M.  M.M.c.M.M.M.M.M.  l.h.1.1.1.1.1.",
"h.-.-.-.*.  E  .a.M.M.M.M.M.M.M.M.c.M.M.M.M.M.M.  l.h.1.1.1.1.1.",
"h.h.h.1.1.  E  .o.x.M.M.M.M.M.  M.M.M.M.M.M.M.M.  l.l.h.h.h.1.1.",
"h.h.h.h.1.    ! ..X.s.M.M.M.M.M.M.c.M.M.M.M.M.J   l.l.h.h.h.h.1.",
"h.h.h.h.h.1.  K [ ..e.x.M.M.M.M.M.M.M.M.M.M.{   >.1.1.1.1.1.h.h.",
"h.g.h.h.h.1.1.  y ~ ..o.x.M.M.M.M.M.M.M.W W   +.8.1.1.1.1.1.1.8.",
"h.h.h.h.h.-.-.} q i J J [ X.s.s.s.I P P     ,.3.+.,.1.1.1.1.1.1.",
"-.-.h.h.h.-.-.-.*.        : 9   7       0.,.3.3.O.,.,.,.1.1.1.1."
};
