/* XPM */
static char *_14b636cc0f74051bf903e68dbaeec59HMfGpcJfaMSeKmXP[] = {
/* columns rows colors chars-per-pixel */
"32 32 151 2 ",
"   c #010101",
".  c #000009",
"X  c #0B0A0A",
"o  c #120402",
"O  c #0D111A",
"+  c #191817",
"@  c #171718",
"#  c #1A1A1A",
"$  c #210C01",
"%  c #301300",
"&  c #000023",
"*  c #000A27",
"=  c #0C0C24",
"-  c #001126",
";  c #252623",
":  c #2C282A",
">  c #32322D",
",  c #393830",
"<  c #6F0509",
"1  c #6E0A0E",
"2  c #72080D",
"3  c #4B2E22",
"4  c #4B3024",
"5  c #493B2C",
"6  c #4A442D",
"7  c #474B43",
"8  c #4D4D45",
"9  c #505047",
"0  c #585846",
"q  c #59625D",
"w  c #646449",
"e  c #666768",
"r  c #646465",
"t  c #6D6F71",
"y  c #6F7073",
"u  c #7F7F7E",
"i  c #727371",
"p  c #9E161C",
"a  c #A11319",
"s  c #AC141B",
"d  c #981A26",
"f  c #A41D27",
"g  c #AC1E2A",
"h  c #BD1E2D",
"j  c #BC2632",
"k  c #C01F2D",
"l  c #D51F26",
"z  c #CF2128",
"x  c #D52027",
"c  c #C12D37",
"v  c #DB3932",
"b  c #BE4C52",
"n  c #C24249",
"m  c #CA7579",
"M  c #E59410",
"N  c #E7961D",
"B  c #FBA21F",
"V  c #A5A57C",
"C  c #E1B954",
"Z  c #FBB151",
"A  c #E2CA53",
"S  c #DDD574",
"D  c #E1DD71",
"F  c #E7D868",
"G  c #EFEC6C",
"H  c #828383",
"J  c #86878A",
"K  c #87898B",
"L  c #8D8D8D",
"P  c #90908F",
"I  c #8F9090",
"U  c #9A9C9F",
"Y  c #9B9CA0",
"T  c #A7A8AC",
"R  c #AAABAD",
"E  c #AAACB0",
"W  c #B1B3B6",
"Q  c #BABCBF",
"!  c #C8C793",
"~  c #F4D088",
"^  c #EDE286",
"/  c #EEEC8A",
"(  c #FCEE87",
")  c #ECE69C",
"_  c #F5E595",
"`  c #F5E8A8",
"'  c #C3C4C6",
"]  c #CDCDCD",
"[  c #CAD5C7",
"{  c #D0DACC",
"}  c #CFD1D3",
"|  c #D1D2D4",
" . c #D5D7D8",
".. c #D9DCDD",
"X. c #FFD8D8",
"o. c #D4E7CE",
"O. c #D6E9CE",
"+. c #CFE3D7",
"@. c #CFE5DB",
"#. c #D1E5D7",
"$. c #D8E3D2",
"%. c #D6EAD5",
"&. c #DEE8D5",
"*. c #D2E7DB",
"=. c #D3E8DF",
"-. c #DFEBDC",
";. c #E5E3C8",
":. c #E7EECA",
">. c #EAEACB",
",. c #E4EED3",
"<. c #EDECD7",
"1. c #E1ECDE",
"2. c #ECECDA",
"3. c #E6F1D4",
"4. c #E5F0DE",
"5. c #EEF1DC",
"6. c #EAF4D4",
"7. c #F3F1D1",
"8. c #FAF8D5",
"9. c #F5F5DD",
"0. c #F8F7DE",
"q. c #F4FADE",
"w. c #FAF9DD",
"e. c #DDDFE1",
"r. c #D2E8E0",
"t. c #DFEBE0",
"y. c #E2EDE0",
"u. c #EBEEE0",
"i. c #E6E8EA",
"p. c #E9EAEA",
"a. c #E1E3E5",
"s. c #F4EBEB",
"d. c #E4F0E2",
"f. c #ECF1E1",
"g. c #F5F5E3",
"h. c #F8F7E3",
"j. c #FBFBE5",
"k. c #FBFAE8",
"l. c #EFF1F2",
"z. c #F3F3F3",
"x. c #F9F9F9",
"c. c #FBFAFA",
"v. c #FCF9F9",
"b. c #FDFBFB",
"n. c #FEFAFA",
"m. c #FDFDFD",
"M. c #FEFEFE",
"N. c white",
"B. c #FFFEFE",
"V. c #FDFEFE",
"C. c #FFFFFF",
/* pixels */
"t.-.g.g.g.g.y.1.1.@.g.h.h.  8 >   &.h.0.w.0.1.1.,.%.w.0.j.j.w.w.",
"g.u.g.g.g.2.1.1.1.1.+.              9.w.w.5.,.1.1.1.%.w.j.0.w.w.",
"g.g.g.g.g.g.g.1.1.{                 0.w.w.w.w.g.1.1.1.,.j.j.w.w.",
"g.1.y.g.g.g.g.1.1.X                 ,.0.w.w.w.g.g.1.1.1.q.w.w.w.",
"g.-.1.g.g.g.g.1.1.1.    1 2 2 z l x ,.;.>.w.w.3.g.1.1.1.1.6.w.w.",
"g.2.g.g.g.f.g.g.1.1.1.s p a a o             7.w.w.w.1.1.1.1.1.o.",
"@.*.g.g.g.g.g.h.h.1.  <     U Y U U #     w.g.w.w.w.w.1.1.1.1.1.",
"*.*.*.*.g.g.g.g.g.      r z.x.V.V.x.V.  7.w.w.w.w.w.w.w.1.1.1.1.",
"2.*.*.*.&.g.g.9.9.<.  K V.V.  V.V.  x.b.  g.w.w.w.w.w.w.w.1.1.1.",
"2.2.% *.*.1.g.9.9.<.  R V.V.x.X.v b.b.V.X :.w.w.w.w.w.w.w.w.1.1.",
"2.% 2.*.*.*.*.g.9.9.X R V.  V.V.V.V.  V.  1.1.k.w.w.w.w.w.w.w.g.",
"% 2.2.2.2.*.*.*.h.0.  R V.V.        V.V.  1.1.1.k.w.w.w.w.w.w.w.",
"g.% % 2.2.$.2.#.h.  d f h h V.b.V.V.k c h   1.1.1.1.w.g.w.w.w.w.",
"% 2.g.% % &.2.% % R | h k b n k j k k m V.o $ 1.1.1.1.1.g.w.w.w.",
"g.g.g.g.g.% %   J ' V.h k V.z.@ V.V.b.V.V.V.$ $ w.1.1.1.1.1.w.w.",
"d.y.h.h.h.h.1.  R s.h h g V.b.V.V.V.V.V.V.$ $ $ w.1.1.1.1.1.w.w.",
"d.d.k.k.h.k.f.  R ..b.b.g V.V.  V.0 # $ $ $ |   w.1.1.1.1.1.1.k.",
"h.f.h.h.h.9.4.; t Q l.V.V.V.V.V.w ; +   ! V.  1.,.,.1.1.1.1.1.1.",
"g.g.g.g.g.9.9.1.  E i.V.V.V.: * - & & O . V   1.1.,.,.1.1.1.1.1.",
"g.-.-.g.g.g.g.  e L u i.V.V.^ N 3 B Z 4 M )   1.1.1.1.w.,.1.1.1.",
"g.1.1.g.g.h.8 L ' | | I u u S C 5 ~ ` 5 C ) ]   1.1.1.1.,.,.,.g.",
"g.f.h.h.h.,.X R | a.i.} ....D A 6 _ _ 6 A ) V.  1.1.1.1.1.,.,.g.",
"r.=.h.h.g.  R } ..l.V.V.V.V.G F 6 ( ( 6 F / V.V.  k.1.1.1.1.1.,.",
"1.1.1.g.g.  R } i.V.V.V.V.V.& & & & & & = , V.V.  k.1.1.1.1.1.1.",
"-.-.@.@.&.  R } i.V.V.V.V.V.V.  V.V.x.V.V.V.V.V.  k.g.1.1.1.1.1.",
"g.-.-.-.*.  T } i.V.V.V.V.V.V.V.V.x.V.V.V.V.V.V.  k.g.1.1.1.1.1.",
"g.g.g.1.1.  T } ..z.V.V.V.V.V.  V.b.V.V.V.V.V.V.  k.k.g.g.g.1.1.",
"g.g.g.g.1.    W |  .p.V.V.V.V.V.x.x.V.V.V.V.V.H   k.k.g.g.g.g.1.",
"g.g.g.g.g.1.  J ' | e.z.V.V.V.V.V.V.V.V.V.V.]   >.1.1.1.1.1.g.g.",
"g.f.g.g.g.1.1.  y Q | ..z.V.V.V.V.V.V.V.R R   o.8.1.1.1.1.1.1.8.",
"g.g.g.g.g.-.-.[ q i H H '  .p.p.p.P L L     ,.3.o.,.1.1.1.1.1.1.",
"-.-.g.g.g.-.-.-.*.        > 9   7       0.,.3.3.o.,.,.,.1.1.1.1."
};
