/* XPM */
static char *cbc1d75eae784506fff74c3acaf82c9eTylTtvrDqi0P2vHm[] = {
/* columns rows colors chars-per-pixel */
"32 32 54 1 ",
"  c #171B0A",
". c #4D130F",
"X c #660C01",
"o c #4B321E",
"O c #4F3220",
"+ c #5B3C29",
"@ c #614628",
"# c #6D443F",
"$ c #716857",
"% c #A21C27",
"& c #D1322E",
"* c #9A5D5C",
"= c #B27350",
"- c #B87266",
"; c #B97F73",
": c #C09173",
"> c #A89B93",
", c #CFA08C",
"< c #EEBDAF",
"1 c #C6CEB6",
"2 c #DDCCBC",
"3 c #FBF8CB",
"4 c #FAFCCA",
"5 c #FAFCCB",
"6 c #F7FED5",
"7 c #F3EEE8",
"8 c #F4FFF1",
"9 c #F7FFF4",
"0 c #FBFFF4",
"q c #FBFFF8",
"w c #FBFDFA",
"e c #FFFCF8",
"r c #FFFCF9",
"t c #FDFDFB",
"y c #FCFFFA",
"u c #FCFFFB",
"i c #FFFEFA",
"p c #FFFFFA",
"a c #FEFFFB",
"s c #FFFBFD",
"d c #FFFAFF",
"f c #F9FFFF",
"g c #FAFEFF",
"h c #FBFFFF",
"j c #FFFCFD",
"k c #FFFEFD",
"l c #FFFFFD",
"z c #FFFCFF",
"x c #FFFDFF",
"c c #FDFFFE",
"v c #FCFFFF",
"b c #FFFEFF",
"n c #FEFFFF",
"m c White",
/* pixels */	
"mmmmmmmmmmmmmmmmmmmmmmmmmmmmmmmm",
"mmmmmmmmmmmmmmmmmmmmmmmmmmmmmmmm",
"mmmmmmmmmmmmmmmmmmmmmmmmmmmmmmmm",
"mmmmmmmmmmmmmmm*****mmmmmmmmmmmm",
"mmmmmmmmmmmmmm*%%%%%*mmmmmmmmmmm",
"mmmmmmmmmmmmm*%%%%**<*mmmmmmmmmm",
"mmmmmmmmmmmmm*%%%*<<-<mmmmmmmmmm",
"mmmmmmmm@@@...***<----<mmmmmmmmm",
"mmmmmmm@::@....<<-----<mmmmmmmmm",
"mmmmmm@:::@..22$<-----<mmmmmmmmm",
"mmmmm@3::@@@222$6666666mmmmmmmmm",
"mmmmm@33555@22X$66666666mmmmmmmm",
"mmmmmm1553522XXX6666666#mmmmmmmm",
"mmmmmm155555X&&&X66666XX#mmmmmmm",
"mmmmm1555555X&&&&X6666XX#mmmmmmm",
"mmmm15555555X&&&&X666=XXX#mmmmmm",
"mmmm15555555X&&&&XXX=XXXXX#mmmmm",
"mmmm15555555X&&&&XX===XXXX#mmmmm",
"mmmm15555555X&&&&X====X;;;>mmmmm",
"mmmm1555555XX&&&X,,===;;;;>mmmmm",
"mmmmm155555;;XXX,,,,,,;;;;>mmmmm",
"mmmmmm11111>;;X,,,,,,,;;;;>mmmmm",
"mmmmmmmmmmm>;;;;,,,,,,;;;>ammmmm",
"mmmmmmmmmmm>>;;7777777;;;>mmmmmm",
"mmmmmmmmmmmmm>77777777;>>mammmmm",
"mmmmmmmmmmmmmm>        >mmmmmmmm",
"mmmmmmmmmmmmmmmOOO++OO >mmmmmmmm",
"mmmmmmmmmmmmmmmOOOO+OOO>mmmmmmmm",
"mmmmmmmmmmmmmmmOOOOOOOOOOmmmmmmm",
"mmmmmmmmmmmmmmmOOOOoOOOOOmmmmmmm",
"mmmmmmmmmmmmmmmmmmmmmmmmmmmmmmmm",
"mmmmmmmmmmmmmmmmmmmmmmmmmmmmmmmm"
};
