/* XPM */
static char * BIGTABLE_xpm[] = {
"32 17 50 1",
" 	c None",
".	c #8A6A59",
"+	c #846154",
"@	c #886757",
"#	c #825C51",
"$	c #825D51",
"%	c #8E6D5A",
"&	c #CE9562",
"*	c #CD8D58",
"=	c #CB8955",
"-	c #CC8B57",
";	c #CA8854",
">	c #AF6948",
",	c #483D4E",
"'	c #93715B",
")	c #CE905B",
"!	c #B96D46",
"~	c #94715B",
"{	c #8F6C58",
"]	c #CC8C58",
"^	c #B96C46",
"/	c #8F6B57",
"(	c #896252",
"_	c #8A6252",
":	c #8A6352",
"<	c #8A6251",
"[	c #93705B",
"}	c #CE8F5B",
"|	c #82564E",
"1	c #C1784C",
"2	c #C27B4D",
"3	c #B76743",
"4	c #7F5B5B",
"5	c #8E5146",
"6	c #884F47",
"7	c #895955",
"8	c #8D5D59",
"9	c #85534F",
"0	c #8D5146",
"a	c #894F47",
"b	c #816B6E",
"c	c #7C7177",
"d	c #905348",
"e	c #815C5C",
"f	c #9A8C8D",
"g	c #A79796",
"h	c #877B7F",
"i	c #8D544B",
"j	c #835A59",
"k	c #918486",
"    ..........+@###########$    ",
"  %&**********=-;;;;;;;;;;;;>,  ",
"  ');;;;;;;;;;;;;;;;;;;;;;;;!,  ",
"  ~);;;;;;;;;;;;;;;;;;;;;;;;!,  ",
"  {];;;;;;;;;;;;;;;;;;;;;;;;^,  ",
"  /];;;;;;;;;;;;;;;;;;;;;;;;!,  ",
"  (;;;;;;;;;;;;;;;;;;;;;;;;;!,  ",
"  _;;;;;;;;;;;;;;;;;;;;;;;;;!,  ",
"  :;;;;;;;;;;;;;;;;;;;;;;;;;!,  ",
"  <;;;;;;;;;;;;;;;;;;;;;;;;;!,  ",
"  <;;;;;;;;;;;;;;;;;;;;;;;;;^,  ",
"  [};;;;;;;;;;;;;;;;;;;;;;;;!,  ",
"  |12222222222222222222222223,  ",
"   456788888888888888888890ab   ",
"   cdefgggggggggggggggggghijk   ",
"                                ",
"                                "};
