/* XPM */
static char * jingle1_xpm[] = {
"32 32 477 2",
"  	c #D9E6E9",
". 	c #F0F0F0",
"+ 	c #BB382E",
"@ 	c #BE372E",
"# 	c #C13530",
"$ 	c #774711",
"% 	c #C8E0E8",
"& 	c #BE362F",
"* 	c #E5E9EA",
"= 	c #B43A2B",
"- 	c #E6223D",
"; 	c #FC0745",
"> 	c #AA3D27",
", 	c #89897E",
"' 	c #8F978E",
") 	c #93A29B",
"! 	c #994120",
"~ 	c #B33A2B",
"{ 	c #DECFB9",
"] 	c #C6E8EA",
"^ 	c #BFF1F4",
"/ 	c #C1EFF2",
"( 	c #C4EDEE",
"_ 	c #C5EEED",
": 	c #C4EFEE",
"< 	c #C5EEEC",
"[ 	c #C3EEED",
"} 	c #ABD8D7",
"| 	c #AC3C28",
"1 	c #CC3134",
"2 	c #8D431C",
"3 	c #A03F23",
"4 	c #89441A",
"5 	c #CDE1DD",
"6 	c #C7E5E8",
"7 	c #CEE0DB",
"8 	c #F3FEFE",
"9 	c #FAFFFF",
"0 	c #FFFFFF",
"a 	c #E5C397",
"b 	c #DBD1B8",
"c 	c #DBD2B5",
"d 	c #9AB2AD",
"e 	c #857D6F",
"f 	c #AB3D27",
"g 	c #C3E5EC",
"h 	c #C2E7EE",
"i 	c #CBE2E1",
"j 	c #EFC48A",
"k 	c #F9BE5A",
"l 	c #FDBA38",
"m 	c #FCBB38",
"n 	c #FCB937",
"o 	c #FBB836",
"p 	c #F9B636",
"q 	c #F8B535",
"r 	c #F7B435",
"s 	c #F6B334",
"t 	c #EAC484",
"u 	c #F3B033",
"v 	c #96A9A4",
"w 	c #B5ECED",
"x 	c #AEDDDD",
"y 	c #A5CBC9",
"z 	c #9DB8B4",
"A 	c #C1E0E5",
"B 	c #D02E35",
"C 	c #A93D27",
"D 	c #C1E7EF",
"E 	c #C0E6F0",
"F 	c #E1CBB2",
"G 	c #FDBB38",
"H 	c #FCBA38",
"I 	c #FBB937",
"J 	c #FAB836",
"K 	c #F4BC5E",
"L 	c #D6E1C9",
"M 	c #A6C2BD",
"N 	c #AED9D7",
"O 	c #9FBEBB",
"P 	c #B3DDDB",
"Q 	c #C1F2F2",
"R 	c #C5E7E6",
"S 	c #C2E9ED",
"T 	c #BBE5E5",
"U 	c #A6CECC",
"V 	c #D4E5E7",
"W 	c #C7E3E6",
"X 	c #C4D8E6",
"Y 	c #D4D1CC",
"Z 	c #FEBB38",
"` 	c #FCBA37",
" .	c #FBB837",
"..	c #F6BE5F",
"+.	c #E3D4A9",
"@.	c #B0E1E1",
"#.	c #B1E4E5",
"$.	c #B7E4E3",
"%.	c #BCD0C4",
"&.	c #D5D4C2",
"*.	c #CADFDC",
"=.	c #CFD7CF",
"-.	c #CED5D1",
";.	c #E2F0EF",
">.	c #C9DFD9",
",.	c #A1C3C0",
"'.	c #D8E5E8",
").	c #C3DFEA",
"!.	c #C7D6E3",
"~.	c #E3CAAC",
"{.	c #F7BF5F",
"].	c #B4D0C8",
"^.	c #C0D9CC",
"/.	c #BAE5E1",
"(.	c #C5F1EC",
"_.	c #CCE4DC",
":.	c #D0CFCF",
"<.	c #D1CDC9",
"[.	c #D6C9BC",
"}.	c #D9C6B5",
"|.	c #DDC0A3",
"1.	c #EBAE56",
"2.	c #EAAD56",
"3.	c #ECA62F",
"4.	c #EAA62F",
"5.	c #E9A52E",
"6.	c #E0B990",
"7.	c #C2E2E9",
"8.	c #D6E2E4",
"9.	c #C9D6DF",
"0.	c #D8CFC4",
"a.	c #F0CA85",
"b.	c #A4CAC7",
"c.	c #C1DCD0",
"d.	c #BFD8CD",
"e.	c #EDBC7C",
"f.	c #E2C4A2",
"g.	c #EBBB7B",
"h.	c #E7BC88",
"i.	c #EFB258",
"j.	c #EEB257",
"k.	c #F0AC32",
"l.	c #EEAA30",
"m.	c #EDAA30",
"n.	c #E3BD83",
"o.	c #AAD5D4",
"p.	c #B19E80",
"q.	c #D5AC73",
"r.	c #C3A57D",
"s.	c #E9E7E7",
"t.	c #C6DEE5",
"u.	c #D0D3D4",
"v.	c #EFC985",
"w.	c #B3C3B8",
"x.	c #E1C6AA",
"y.	c #E7C195",
"z.	c #F4B134",
"A.	c #F3AF33",
"B.	c #F2AF33",
"C.	c #F1AD32",
"D.	c #B0A890",
"E.	c #A4C9C7",
"F.	c #A9D4D2",
"G.	c #C9E8DC",
"H.	c #C8E9DF",
"I.	c #C8E7DC",
"J.	c #B1E5E5",
"K.	c #B4EBEB",
"L.	c #B2E6E7",
"M.	c #93A39C",
"N.	c #D5D8CF",
"O.	c #DACEC2",
"P.	c #F6C268",
"Q.	c #A1C2BF",
"R.	c #AAD4D3",
"S.	c #E4C5A2",
"T.	c #F7B335",
"U.	c #F4B133",
"V.	c #B78F57",
"W.	c #A2977F",
"X.	c #9BA69D",
"Y.	c #9DBAB6",
"Z.	c #CEE3D4",
"`.	c #EBA730",
" +	c #E9A42E",
".+	c #E8A32E",
"++	c #E4AC5B",
"@+	c #E5A02C",
"#+	c #E0A757",
"$+	c #DEA75C",
"%+	c #D2C5A5",
"&+	c #D1BF9E",
"*+	c #A3C7C4",
"=+	c #D9EBEB",
"-+	c #99B1AC",
";+	c #E1CBB0",
">+	c #D5D0CB",
",+	c #816E5C",
"'+	c #8E785D",
")+	c #F8B536",
"!+	c #F5B72F",
"~+	c #F5B233",
"{+	c #B8A381",
"]+	c #A3977F",
"^+	c #DECDA6",
"/+	c #EAB25C",
"(+	c #EDA830",
"_+	c #EBA830",
":+	c #E7A12D",
"<+	c #B57920",
"[+	c #8B5715",
"}+	c #DA9427",
"|+	c #CBC4AB",
"1+	c #98AFAA",
"2+	c #F2C27C",
"3+	c #F7BF60",
"4+	c #F9B737",
"5+	c #F8B435",
"6+	c #F6B234",
"7+	c #F4B52F",
"8+	c #BE8624",
"9+	c #9B681B",
"0+	c #E7C184",
"a+	c #E6BF83",
"b+	c #EFAA31",
"c+	c #EBA72F",
"d+	c #EAA62E",
"e+	c #E7A22D",
"f+	c #E6A22D",
"g+	c #E49F2C",
"h+	c #E29D2B",
"i+	c #935E17",
"j+	c #905B16",
"k+	c #D58E25",
"l+	c #EEFDFE",
"m+	c #94A59F",
"n+	c #E6F2F2",
"o+	c #CA9029",
"p+	c #F6B435",
"q+	c #F6B335",
"r+	c #D4972B",
"s+	c #F2AE32",
"t+	c #F0AC31",
"u+	c #EEAA31",
"v+	c #EDA931",
"w+	c #ECA830",
"x+	c #EBA62F",
"y+	c #E8A42E",
"z+	c #E7A22E",
"A+	c #E6A12C",
"B+	c #E19C2A",
"C+	c #DE9929",
"D+	c #925D17",
"E+	c #8F5A16",
"F+	c #D28B23",
"G+	c #FCB837",
"H+	c #FAB837",
"I+	c #9E6B1D",
"J+	c #F7B536",
"K+	c #B37C22",
"L+	c #EFAB31",
"M+	c #ECA82F",
"N+	c #EAA52E",
"O+	c #E6A12D",
"P+	c #E39E2C",
"Q+	c #E19B2B",
"R+	c #DE9829",
"S+	c #DB9428",
"T+	c #D99226",
"U+	c #814F13",
"V+	c #9C6318",
"W+	c #8E5915",
"X+	c #CE8620",
"Y+	c #837160",
"Z+	c #F4C271",
"`+	c #F4C067",
" @	c #F5B234",
".@	c #AD7721",
"+@	c #F1AE32",
"@@	c #F0AD32",
"#@	c #EFAB32",
"$@	c #EDA930",
"%@	c #ECA730",
"&@	c #E5A12C",
"*@	c #E09A2A",
"=@	c #DD9728",
"-@	c #DC9427",
";@	c #D89226",
">@	c #D68F25",
",@	c #D38C23",
"'@	c #CF8822",
")@	c #8D5815",
"!@	c #CB821F",
"~@	c #C8843D",
"{@	c #BB9661",
"]@	c #865515",
"^@	c #ECA930",
"/@	c #EAA52F",
"(@	c #E8A32D",
"_@	c #E29D2A",
":@	c #DF9A29",
"<@	c #D58E24",
"[@	c #CD8421",
"}@	c #C87F1E",
"|@	c #C67D1D",
"1@	c #C3791C",
"2@	c #F7B84A",
"3@	c #F5B334",
"4@	c #E7A32E",
"5@	c #DF992A",
"6@	c #DC9627",
"7@	c #DA9326",
"8@	c #D79025",
"9@	c #D28A23",
"0@	c #CF8722",
"a@	c #CD8520",
"b@	c #CA821F",
"c@	c #9D6217",
"d@	c #C57B1D",
"e@	c #C2781B",
"f@	c #836751",
"g@	c #868072",
"h@	c #A6711E",
"i@	c #F3B034",
"j@	c #A4701E",
"k@	c #EDA82F",
"l@	c #976319",
"m@	c #966219",
"n@	c #AF761F",
"o@	c #E7A32D",
"p@	c #DE9828",
"q@	c #DC9527",
"r@	c #D99327",
"s@	c #D79125",
"t@	c #D48C24",
"u@	c #D18A22",
"v@	c #CF8721",
"w@	c #CC8420",
"x@	c #CA811F",
"y@	c #C77E1E",
"z@	c #935914",
"A@	c #EEF0F0",
"B@	c #F0AB31",
"C@	c #845314",
"D@	c #C68825",
"E@	c #E19B29",
"F@	c #DB9527",
"G@	c #D38C24",
"H@	c #D18922",
"I@	c #CE8621",
"J@	c #C9801F",
"K@	c #C47B1C",
"L@	c #7E4C12",
"M@	c #915713",
"N@	c #F2AE33",
"O@	c #B47B20",
"P@	c #8E5B17",
"Q@	c #E09B2A",
"R@	c #DD9729",
"S@	c #DB9528",
"T@	c #D08822",
"U@	c #CB8320",
"V@	c #C8801F",
"W@	c #C3791B",
"X@	c #A76617",
"Y@	c #965B14",
"Z@	c #955913",
"`@	c #987C69",
" #	c #F1AE33",
".#	c #F1AD31",
"+#	c #E9A42F",
"@#	c #956119",
"##	c #946018",
"$#	c #AB721E",
"%#	c #835114",
"&#	c #825114",
"*#	c #CE8A24",
"=#	c #CA8220",
"-#	c #C57C1C",
";#	c #B87319",
">#	c #AB6917",
",#	c #794811",
"'#	c #9A5C14",
")#	c #B66B15",
"!#	c #DAAD78",
"~#	c #EEAB32",
"{#	c #E29B2A",
"]#	c #A9701D",
"^#	c #A0681A",
"/#	c #9F671A",
"(#	c #D79126",
"_#	c #AA6C1B",
":#	c #875314",
"<#	c #C17C1D",
"[#	c #BF791D",
"}#	c #B26F19",
"|#	c #9D6116",
"1#	c #824D12",
"2#	c #995A13",
"3#	c #82614A",
"4#	c #C7B6A2",
"5#	c #E39E2B",
"6#	c #DC9628",
"7#	c #D99326",
"8#	c #D48D24",
"9#	c #CC8320",
"0#	c #BD7318",
"a#	c #BA6F17",
"b#	c #935712",
"c#	c #B46A14",
"d#	c #784917",
"e#	c #AD865D",
"f#	c #E5A02D",
"g#	c #C8811E",
"h#	c #C47B1D",
"i#	c #C1771B",
"j#	c #BF7519",
"k#	c #BB7218",
"l#	c #945813",
"m#	c #935713",
"n#	c #B56915",
"o#	c #E39D2B",
"p#	c #C77F1E",
"q#	c #C37A1B",
"r#	c #C1771A",
"s#	c #BD7419",
"t#	c #BC7119",
"u#	c #B96F17",
"v#	c #B56A15",
"w#	c #7D522F",
"x#	c #E49F2B",
"y#	c #E29C2B",
"z#	c #DF9929",
"A#	c #DA9327",
"B#	c #D08922",
"C#	c #CC8520",
"D#	c #985F16",
"E#	c #9B6017",
"F#	c #955C15",
"G#	c #C0771A",
"H#	c #BB7018",
"I#	c #B86D16",
"J#	c #935613",
"K#	c #B56A14",
"L#	c #815738",
"M#	c #E09F3E",
"N#	c #B4731B",
"O#	c #BD7319",
"P#	c #BA6F18",
"Q#	c #784918",
"R#	c #794B1D",
"S#	c #D99227",
"T#	c #C9801E",
"U#	c #965D16",
"V#	c #905613",
"W#	c #8F5512",
"X#	c #B46A15",
"Y#	c #7D5330",
"Z#	c #CCD0CE",
"`#	c #C57C1D",
" $	c #C47A1C",
".$	c #B96E16",
"+$	c #B76C16",
"@$	c #B46914",
"#$	c #BEADA5",
"$$	c #9D7F6C",
"%$	c #C57D1D",
"&$	c #C27A1B",
"*$	c #BE7319",
"=$	c #BB7118",
"-$	c #B96E17",
";$	c #947968",
">$	c #997D6D",
",$	c #7A4D22",
"'$	c #7A4B1D",
")$	c #7E5330",
"!$	c #8B6F5C",
"    . . . .   + @ # $ . . . . .     . . . .       % . . . . . . ",
"$ & $ . . * = - ; ; > $ , ' ' ) ' , ' , , ,         % . . * . . ",
"! ; ~ . . $ ; ; ; $ $ { ] ^ / ( _ : < < [ [ } $     %   . . . . ",
"| ; ; 1 2 ; 3 3 4 5 6 7 8 9 0 0 0 0 0 9 9 a b c d e % %   . . . ",
"f ; ; ; 2 ; $ g h i j k l m n o p q r s t u v w x y z A %   . . ",
"$ ; B C $ $ D E F k G G H I J p K L M N O } P Q R S T U V   % % ",
"% 2 2 ; ' W X Y G Z G `  ...+.@.#.$.%.&.*.=.-.0 0 9 ;.>.,.  '.  ",
"    $ , ).!.~.G G G I {.].^./.(._.:.<.[.}.|.1.2.3.4.5.6.7., 8.  ",
"    % , 9.0.G G H a.b.c.d.e.f.g.h.i.j.k.l.m.n.o.O v p.q.r.z s.  ",
".   v t.u.Z G G v.,.w.x.y.g.z.A.B.C.D.E.F.F.,.G.H.I.J.K.L.M.N.. ",
". . ,.O.G Z P.Q.R.S.q T.s U.u V.W.X.Y.Z.`.4. +.+++@+#+$+%+&+*+=+",
". -+;+>+G H ,+'+)+r !+~+z.{+]+Y.^+/+(+_+4. +.+:+@+$ <+[+}+9 |+1+",
". -+~.2+3+$ 4+p 5+6+7+8+9+0+a+b+m.(+c+d+ +e+f+g+h+i+$ $ j+k+l+m+",
"n+, G ` M.o+q p+q+r+$ s+C.t+u+v+w+x+4.y+z+A+g+B+C+D+$ $ E+F+9 M.",
"n+, G+H+I+J+p+6+K+$ B.C.L+b+v+M+4.N+ +e+O+P+Q+R+S+T+U+V+W+X+9 M.",
"Y+Z+`+,+q q+ @.@$ +@@@#@l.$@%@x+5..+e+&@P+*@=@-@;@>@,@'@)@!@0 ~@",
"Y+`+,+{@q+ @U.]@+@k.L+u+^@%@/@ +(@:+@+_@:@=@}+;@<@,@'@[@$ }@|@1@",
"-+2@$ 3@ @u ]@+@k.L+v+(+c+4. +4@O+g+B+5@6@7@8@<@9@0@a@b@c@d@e@$ ",
"f@g@h@z.i@j@$ k.u+v+k@l@m@n@o@O+g+Q+p@q@r@s@t@u@v@w@x@y@$ e@z@$ ",
"A@g@r+A.+@$ B@u+v+`.x+C@$ $ D@P+E@R+F@r@>@G@H@I@w@J@y@K@$ L@M@$ ",
". $ B.N@@@$ u+$@M+/@N+O@$ $ P@Q@R@S@;@>@F+T@I@U@V@|@W@X@$ Y@Z@$ ",
". `@ #.#$ l.(+x+x++#y+@###$#%#&#$ *#k+F+T@a@=#}@-#;#>#L@,#'#)#$ ",
"% $ !#~#$ M+c+/@5.(@O+g+{#]#^#/#(#E+$ _#:#<#[#}#|#z@$ $ 1#2#$ $ ",
"  3#4#u+$ x+N+ +4@:+5#B+R+6#7#>@8#u@v@9#x@$ $ $ L@0#a#$ b#c#d#  ",
"    $ e#$ /@ +e+f#P+*@R+F@T+>@,@H@I@w@g#|@h#i#j#k#a#l#m#n#$ .   ",
".     $ $ .+e+@+o#Q@=@S+;@k+,@T@I@!@p#|@q#r#s#t#u#$ $ v#$ w#. . ",
". . .   d#$ x#y#z#=@A#8@<@9@B#C#D#E#F#1@G#s#H#I#$ J#K#$ L#. . . ",
". . . .   $ M#z#6#7#8@8#9@v@a@N#$ $ $ $ O#P#I#$ $ v#$ Q#    . . ",
". . . . .   R#$ S#>@8#H@0@w@T#U#$ $ $ $ V#W#2#1#X#$ Y#.     . . ",
". * . . .     Z#$ G@H@I@U@J@`# $$ $ $ .$+$n#@$K#$ #$. . . . . . ",
". . . . .       % $$$ U@}@%$&$r#*$=$-$)#v#c#R#;$% . . * . . . . ",
"    . . .       % . . >$,$'$$ $ $ $ $ '$)$!$    % . . . . . . * "};
