/* XPM */
static char * enemy_xpm[] = {
"32 32 220 2",
"  	c None",
". 	c #D9E6E9",
"+ 	c #F0F0F0",
"@ 	c #5D0600",
"# 	c #C41900",
"$ 	c #BC1700",
"% 	c #C51900",
"& 	c #FF4100",
"* 	c #9F2500",
"= 	c #F1EBEB",
"- 	c #F5CAC7",
"; 	c #810C00",
"> 	c #C8E0E8",
", 	c #E5E9EA",
"' 	c #B71600",
") 	c #7B0B00",
"! 	c #FF4800",
"~ 	c #FF4900",
"{ 	c #FF4600",
"] 	c #C81C00",
"^ 	c #DB2B00",
"/ 	c #ECA49F",
"( 	c #E43100",
"_ 	c #A51300",
": 	c #C7A5AA",
"< 	c #E2C7C7",
"[ 	c #D8E1E4",
"} 	c #790B00",
"| 	c #FF4F00",
"1 	c #FF4E00",
"2 	c #FD4C00",
"3 	c #E0C1C0",
"4 	c #FF4700",
"5 	c #FF4300",
"6 	c #ED3700",
"7 	c #E33100",
"8 	c #850D00",
"9 	c #D2BFC1",
"0 	c #EEEBEB",
"a 	c #FF5400",
"b 	c #ED4600",
"c 	c #FF4D00",
"d 	c #FF4A00",
"e 	c #F53B00",
"f 	c #E63200",
"g 	c #FF5900",
"h 	c #FF5A00",
"i 	c #B31600",
"j 	c #EB4600",
"k 	c #FF5200",
"l 	c #FF5000",
"m 	c #E43400",
"n 	c #FF5E00",
"o 	c #FF5F00",
"p 	c #FF6100",
"q 	c #F55600",
"r 	c #F55500",
"s 	c #FF5C00",
"t 	c #FF5800",
"u 	c #FF5500",
"v 	c #FF5300",
"w 	c #900F00",
"x 	c #AE2000",
"y 	c #E1D2D4",
"z 	c #ED5200",
"A 	c #FF6300",
"B 	c #FF6500",
"C 	c #FF6400",
"D 	c #FF6600",
"E 	c #FF6000",
"F 	c #FF5D00",
"G 	c #FF5B00",
"H 	c #E43F00",
"I 	c #F87B6F",
"J 	c #E83A00",
"K 	c #D5D1D4",
"L 	c #EB4D00",
"M 	c #FC7F73",
"N 	c #FF6800",
"O 	c #FF6A00",
"P 	c #FF6C00",
"Q 	c #FF6B00",
"R 	c #FF6900",
"S 	c #E44300",
"T 	c #FD7667",
"U 	c #F3DBDA",
"V 	c #F6C4C0",
"W 	c #931000",
"X 	c #FF7100",
"Y 	c #FF7000",
"Z 	c #FF6E00",
"` 	c #E8DADA",
" .	c #D4CDD3",
"..	c #7A1A00",
"+.	c #D08E8D",
"@.	c #9D1200",
"#.	c #FF7700",
"$.	c #FF7500",
"%.	c #FF7200",
"&.	c #FF6200",
"*.	c #D22800",
"=.	c #DE4E00",
"-.	c #F56D00",
";.	c #FF7C00",
">.	c #FF7A00",
",.	c #FF7B00",
"'.	c #FF7800",
").	c #FF7400",
"!.	c #FF6D00",
"~.	c #FF5600",
"{.	c #FF4C00",
"].	c #ED3C00",
"^.	c #D23D00",
"/.	c #FF7D00",
"(.	c #F57300",
"_.	c #F57400",
":.	c #FF8200",
"<.	c #FF8100",
"[.	c #FF8000",
"}.	c #FF7F00",
"|.	c #F34300",
"1.	c #B91700",
"2.	c #E45E00",
"3.	c #FF8500",
"4.	c #FF8700",
"5.	c #FF8600",
"6.	c #FF8400",
"7.	c #FF7E00",
"8.	c #FF7900",
"9.	c #FF7600",
"0.	c #FF6F00",
"a.	c #FF5700",
"b.	c #F54700",
"c.	c #FF8A00",
"d.	c #FF8B00",
"e.	c #FF8D00",
"f.	c #FF8C00",
"g.	c #FF8900",
"h.	c #FF8800",
"i.	c #E44600",
"j.	c #E44200",
"k.	c #D24000",
"l.	c #FF8F00",
"m.	c #FF9000",
"n.	c #FF9200",
"o.	c #FF9400",
"p.	c #FF9100",
"q.	c #FF8300",
"r.	c #DCB1B0",
"s.	c #BC2D00",
"t.	c #C52E00",
"u.	c #F57A00",
"v.	c #000000",
"w.	c #FF9300",
"x.	c #FF9600",
"y.	c #FF9700",
"z.	c #FF9900",
"A.	c #FF9500",
"B.	c #FF8E00",
"C.	c #F43E00",
"D.	c #FF9B00",
"E.	c #FF9C00",
"F.	c #FF9D00",
"G.	c #FF9800",
"H.	c #FF9E00",
"I.	c #FF9A00",
"J.	c #C21800",
"K.	c #FF7300",
"L.	c #F56500",
"M.	c #F56000",
"N.	c #E44B00",
"O.	c #DF4000",
"P.	c #E93B00",
"Q.	c #FFA100",
"R.	c #FFA000",
"S.	c #FB4000",
"T.	c #EDAEAB",
"U.	c #FFA200",
"V.	c #FFA300",
"W.	c #F03D00",
"X.	c #FA8F00",
"Y.	c #FA9300",
"Z.	c #FFA500",
"`.	c #830D00",
" +	c #FA9600",
".+	c #F59100",
"++	c #FF9F00",
"@+	c #FE9500",
"#+	c #ED7A00",
"$+	c #F27E00",
"%+	c #050825",
"&+	c #06092A",
"*+	c #743136",
"=+	c #910F00",
"-+	c #E47100",
";+	c #E46F00",
">+	c #F38200",
",+	c #690800",
"'+	c #EDEDED",
")+	c #2E1E39",
"!+	c #652B38",
"~+	c #692D37",
"{+	c #542539",
"]+	c #261A3A",
"^+	c #352238",
"/+	c #552937",
"(+	c #221837",
"_+	c #14144D",
":+	c #1A175A",
"<+	c #312040",
"[+	c #682C37",
"}+	c #DADADB",
"|+	c #301F39",
"1+	c #15154F",
"2+	c #171653",
"3+	c #181655",
"4+	c #251A45",
"5+	c #241944",
"6+	c #1C1650",
"7+	c #C5D0D4",
". . + + + + @ # $ % % & * = - + . . + + % % % ; . > + + + + + + ",
"+ % + + + , . ' ) ! ~ { ] ^ & + + , / ] & ( ( & % _ : + + , % + ",
"% & % < + + + . [ } | | 1 2 } + + 3 & { 4 5 & & 6 7 % 8 < % % % ",
"3 % 9 0 + + + . 9 % a a a b % + + % 1 c d ~ 4 5 & & e f % + % + ",
"+ . . + + + + . % g h g g h i i % j a k l c d ! m ( i i % % + + ",
"+ , + + + , + } % n o o p o q r n s h t u v l c w x y . . . > > ",
"> > % % % + + % z A B C D D B B C E o F G t H w + I J % K . . . ",
". . . ; L J M & % N O P Q P O O R D C p o F S w + + + % i . . . ",
". . > > J T U V % W w X X Y Y Y Z Q O N C p % % ` ` % % i @ + . ",
"+ . . .  ...i % % +.@.i #.#.$.$.%.X Z P N D &.n i i k c *.@ + + ",
"+ + + . . > @ =.-.i ' i ;.;.>.,.'.#.).X !.Q D &.n g ~.k {.].% + ",
"+ + + + . . i ^./.(._.:.<.<.[.}./.>.#.$.%.Z O D p n t a l |.1.+ ",
"+ + + + + . % 2.:.3.3.4.5.4.3.6.:.[.7.8.9.%.0.O D E s a.v b.i + ",
"+ , + + + % % 6.4.c.d.e.f.f.d.g.h.5.<.7.,.9.%.!.R A i.j.H w + + ",
"+ + + + i k.5.h.f.l.m.n.o.n.p.l.f.c.5.q.}.8.$.Y P D w w w r.+ + ",
". . + s.t.u.v.v.p.w.x.y.z.y.x.A.p.B.g.3.<./.'.).0.% < + + + + + ",
". . + C.&.h.f.m.v.z.D.D.E.F.D.G.x.p.B.c.6.[.,.$.X } 0 + + + + + ",
"+ , + J ,.d.p.A.v.G.o.4.4.h.z.H.I.x.p.e.4.q./.#.% i > + ` i + + ",
"+ + + J u B.w.y.F.v.Y X %.%.Y Z x.G.w.v.v.v.7.8.% J.i w @.i + + ",
"+ . . ..}.l.o.I.v.v.v.).$.).K.Y m.D.v.p.d.3.[.>.$.L.M.N.O.i + + ",
"+ . . & '.m.x.D.v.v.).#.'.#.v.v.v.v.y.n.f.3.[.>.$.0.O B q i + + ",
"+ , + * P.3.x.E.Q.#.).#.>.'.).v.v.v.y.n.f.5.[.>.$.0.O o | s.> > ",
"> > + + J 6.o.I.R.w.K.$.#.9.).Y z.D.x.m.d.5.[.>.$.R ~ S.C.T.. . ",
". . . + & & g z.H.U.v.v.U.y.V.V.H.I.A.l.c.6.Q & n S.W.... . . . ",
". . > > . ..J X.Y.v.V.Z.v.v.U.R.E.y.n.B.7.J & & s.M U + + + + . ",
"+ . . . > . + `.`.Y. +.+R.++v.D.@+#+$+d...J + + + , + + + , + + ",
"+ + + . %+&+&+*+*+`.`.=+=+-+;+X.>+=+,+&+&+&+&+&+&++ + + + + + + ",
"+ + '+&+)+!+*+*+*+*+*+v.=+=+=+`.`.v.v.*+*+~+~+{+&+&++ + . . + + ",
"+ + &+]+^+^+^+^+*+*+*+v., + + + , v.*+*+*+*+*+/+(+&++ + . . + + ",
"+ , &+_+:+:+<+^+^+^+[+&++ + + + }+&+*+*+*+^+^+^+|+&+}++ + + + + ",
"+ + %+1+2+3+_+_+_+]+]+&++ + + . . &+4+5+6+_+_+_+_+&++ , + + + + ",
". . + %+&+&+&+&+&+&+&++ + + + . 7+&+&+&+&+&+&+&+&+&++ + + + + , "};
