/* XPM */
static char * portale_xpm[] = {
"32 32 143 2",
"  	c None",
". 	c #D9E6E9",
"+ 	c #F0F0F0",
"@ 	c #C8E0E8",
"# 	c #E5E9EA",
"$ 	c #F0EFEF",
"% 	c #E4E8E9",
"& 	c #EDECEC",
"* 	c #E3E7E8",
"= 	c #EFEFEF",
"- 	c #EFEDED",
"; 	c #ECEBEB",
"> 	c #EEEEEE",
", 	c #B49291",
"' 	c #BC7977",
") 	c #EFC8C7",
"! 	c #EBD1D0",
"~ 	c #CBABAB",
"{ 	c #921510",
"] 	c #D5A8A9",
"^ 	c #DCB1B2",
"/ 	c #EBC2C2",
"( 	c #A4898D",
"_ 	c #DAE1E3",
": 	c #A06562",
"< 	c #911510",
"[ 	c #A64442",
"} 	c #D38A88",
"| 	c #F9E0DF",
"1 	c #FBE7E8",
"2 	c #E0BDBD",
"3 	c #AD1B16",
"4 	c #C98182",
"5 	c #D8ABA9",
"6 	c #EAC0C1",
"7 	c #9C6160",
"8 	c #DDB1B2",
"9 	c #CB9091",
"0 	c #BC696C",
"a 	c #AB1A15",
"b 	c #BA1D18",
"c 	c #FAE0DF",
"d 	c #F9E0E0",
"e 	c #DDB4B3",
"f 	c #AE1B16",
"g 	c #D18E8D",
"h 	c #EDC4C3",
"i 	c #F7D8D6",
"j 	c #F2CDCC",
"k 	c #E4B9B9",
"l 	c #F3D3D1",
"m 	c #E2A1A2",
"n 	c #B81E18",
"o 	c #F7CACC",
"p 	c #F3CDCC",
"q 	c #D2A5A3",
"r 	c #961813",
"s 	c #981712",
"t 	c #EDD6D5",
"u 	c #FCECED",
"v 	c #FBE6E6",
"w 	c #DEB0B0",
"x 	c #F5DEDE",
"y 	c #8A1512",
"z 	c #F7DAD9",
"A 	c #EFD7D5",
"B 	c #BA1D17",
"C 	c #FFFFFF",
"D 	c #37DDF8",
"E 	c #FFFEFE",
"F 	c #39DDF8",
"G 	c #D7E3E6",
"H 	c #A75855",
"I 	c #EED3D2",
"J 	c #FCE8E9",
"K 	c #F9E3E2",
"L 	c #EBB9B9",
"M 	c #FEFDFD",
"N 	c #EDEDED",
"O 	c #ECECEC",
"P 	c #D9AAA9",
"Q 	c #EED1D1",
"R 	c #FEFEFE",
"S 	c #F4EBEB",
"T 	c #B41C17",
"U 	c #D0908E",
"V 	c #F2D4D3",
"W 	c #991613",
"X 	c #C76764",
"Y 	c #F6CBCC",
"Z 	c #C56764",
"` 	c #B31C17",
" .	c #951913",
"..	c #E6C1BF",
"+.	c #D49695",
"@.	c #EFD0D0",
"#.	c #CE8E8D",
"$.	c #D8E5E8",
"%.	c #D8E4E7",
"&.	c #FCE6E6",
"*.	c #EDD6D6",
"=.	c #951912",
"-.	c #D7E4E7",
";.	c #EED6D5",
">.	c #EFEEEE",
",.	c #C26968",
"'.	c #DEB2B1",
").	c #FBFBFB",
"!.	c #991712",
"~.	c #C46B69",
"{.	c #DBAAA8",
"].	c #B78C8B",
"^.	c #B73733",
"/.	c #C35D5B",
"(.	c #E6B9B9",
"_.	c #AE6663",
":.	c #C56864",
"<.	c #FBE6E5",
"[.	c #E6BABA",
"}.	c #F2DBDB",
"|.	c #D6ACAA",
"1.	c #FCFCFC",
"2.	c #D3DDE0",
"3.	c #D4A5A3",
"4.	c #F6E0DF",
"5.	c #F3DDDC",
"6.	c #C38A88",
"7.	c #FDFBFB",
"8.	c #DFC2C1",
"9.	c #F1DDDD",
"0.	c #F6DEDD",
"a.	c #DCBAB9",
"b.	c #D6E2E5",
"c.	c #971812",
"d.	c #C08988",
"e.	c #DCBABA",
"f.	c #E1DADA",
"g.	c #CDD1D3",
"h.	c #D4D8DA",
"i.	c #6A5A5A",
"j.	c #FDFDFD",
"k.	c #6A5C5C",
"l.	c #E7E0E0",
". . + + + + . . . @ + + + + + + . . + + + + . . . @ + + + + + + ",
"+ # + + $ # . . . . @ + + % & + + * = + + # . . . . @ + + # + + ",
"+ + + + - + + . . . @ . + + ; $ + > + + + + + . . . @ . + + + + ",
"+ . . + , ' ) ) ! ~ { { { { ] ^ / ^ { { { { ~ ! ) ) ' ( . + + + ",
"+ . _ : < [ } | 1 2 3 3 3 4 5 / 6 5 4 3 3 3 2 1 | } [ < 7 . + + ",
"+ # 8 9 0 a b c d e 3 f g h i j k l h g f 3 e d c b a 0 9 8 @ @ ",
"@ @ 8 ) m n b o p q r s t u v p w x u t y r q p o b n m ) 8 . . ",
". . 8 ) z A B C C C C C D D D C E D D D F C C C C B A z ) 8 . . ",
"G G H I J K L M M C D D D C C C E C C F D D D C M L K J I H N G ",
"O . s P Q v p C C D D D C C C C C R E C S D D D C p v Q P s + O ",
"= + s T U V p C D D D C C C D D D D C C C C D D C p V U T s + + ",
"+ + W T b X p D D D C C C D D D D D D C C C C D T p X b T W + + ",
"+ + Y Z b `  .D D C C C D D D C C D D D C C C D T  .` b Z Y + + ",
"+ # p ..+.T s D C C C D D D C C C C D D D C C C T s T +...p + + ",
"$ + p v @.#.s C C C D D D C C C C C D D D C C C T s #.@.v p + + ",
"$.%.Y &.u *.=.C C D D D C C C D C D D D C C C D T =.*.u &.Y = = ",
"-.%.s ;.u v p C D D D C C C D D D D D C C C D D T p v u ;.s & >.",
"N # s ,.'.v p C D D D C C C D D D D C C C D D D ).p v '.,.s + > ",
"+ + !.T ~.{.p C C D D D C C C D D C C C D D D C C p {.~.T !.+ + ",
"+ . ].^.b /.(.).C C D D D C C C C C C D D D C C C (./.b ^._.+ + ",
"+ . p :.b T s D C C C D D D C C C C D D D C C C T s T b :.p + + ",
"+ # p <.[.T s D D C C C D D D C C D D D C C C D T s T [.<.p @ @ ",
"@ @ p v }.|.s D D D C C C D D D D D D 1.C C D D T s |.}.v p . . ",
"2.. 3.4.u 5.6.C D D D C C C D D D D C C 7.D D D C 6.5.u 4.3.. . ",
"G . s 8.9.0.a.C C D D D C C C C C C C C D D D 1.C a.0.9.8.s = b.",
"+ . !.c.d.e.C C C C D D D C C C C C C D D D C C C C e.d.c.!.+ + ",
"+ + f.g.h.i.C j.C C C D D D D D D D D D D C C C C C k.l.f.f.+ + ",
"+ + + + . . @ + + . . + + + + + + + + + . . @ + + + + + . . + + ",
"+ + + + + . . @ # + + + # + + + # + + + . . . @ # + + + . . + + ",
"+ # + + + . . @ + + + + + + + + + + + + . . . @ + + + + + + + + ",
"+ + + + + . . . @ + + + + + + . . + + + + . . . @ + + # + + + + ",
". . + + + . . . @ + + + + + + . . + + + + . . . @ + + + + + + # "};
