/* XPM */
static char * tile_2_xpm[] = {
"32 32 5 1",
" 	c None",
".	c #747B7D",
"+	c #818181",
"@	c #6A787C",
"#	c #7A7D7D",
"..++++...@++++++..++++...@++++++",
"+#+++#....@++#+++#+++#....@++#++",
"+++++++...@.+++++++++++...@.++++",
"+..++++...@@.++++..++++...@@.+++",
"+..++++....@@.+++..++++....@@.++",
"+#+++#++......@@+#+++#++......@@",
"@@+++++++.......@@+++++++.......",
"...++++++++........++++++++.....",
"..@@.++++++++++...@@.++++++++++.",
"+...@.+++#+++#+++...@.+++#+++#++",
"+++..@@++++++++++++..@@+++++++++",
"++++..@.++..++++++++..@.++..++++",
"+++++..@++..+++++++++..@++..++++",
"+#+++...@#+++#+++#+++...@#+++#++",
"+++++...@++++++++++++...@+++++++",
"..++++...@++++++..++++...@++++++",
"..++++...@++++++..++++...@++++++",
"+#+++#....@++#+++#+++#....@++#++",
"+++++++...@.+++++++++++...@.++++",
"+..++++...@@.++++..++++...@@.+++",
"+..++++....@.@@+#+++#++....@@.++",
"+#+++#++.......@@+++++++......@@",
"@@+++++++.........+++++++.......",
"...++++++++.++...@@.+++++++.....",
"..@@.+++++++#+++...@.++++++++++.",
"+...@.+++#++++++++..@@+++#+++#++",
"+++..@@++++++++++++..@@+++++++++",
"++++..@++..+++++++++..@+++++..++",
"+++++..@#+++#+++#+++...@#+++..++",
"+#+++..@++++++++++++...@++++++++",
"+++++...@++++++..++++...@++#++++",
"..+++...@++++++..++++...@++++++#"};
