/* XPM */
static char * Room_Builder_free_32x32_xpm[] = {
"32 32 3 1",
" 	c #7EA9B0",
".	c #A4D5D5",
"+	c #BDF1E5",
"                                ",
" ............  ++++  .......... ",
" ............  ++++  .......... ",
" ............  ++++  .......... ",
" ............  ++++  .......... ",
" ............  ++++  .......... ",
" ............  ++++  .......... ",
" ............  ++++++  ........ ",
" ............  ++++++  ........ ",
" ..........  ++++++++++  ...... ",
" ..........  ++++++++++  ...... ",
" ........  ++++++++++++++       ",
" ........  ++++++++++++++       ",
"         ++++++++++++++++++++++ ",
"         ++++++++++++++++++++++ ",
" ++++++++++++++++++++++++++++++ ",
" ++++++++++++++++++++++++++++++ ",
" ++++++++++++++++++++++         ",
" ++++++++++++++++++++++         ",
"       ++++++++++++++  ........ ",
"       ++++++++++++++  ........ ",
" ......  ++++++++++  .......... ",
" ......  ++++++++++  .......... ",
" ........  ++++++  ............ ",
" ........  ++++++  ............ ",
" ..........  ++++  ............ ",
" ..........  ++++  ............ ",
" ..........  ++++  ............ ",
" ..........  ++++  ............ ",
" ..........  ++++  ............ ",
" ..........  ++++  ............ ",
"                                "};
