/* XPM */
static char * alberi_con_luci_belli_32_xpm[] = {
"32 32 106 2",
"  	c None",
". 	c #D9E6E9",
"+ 	c #F0F0F0",
"@ 	c #C8E0E8",
"# 	c #E5E9EA",
"$ 	c #CBDEE4",
"% 	c #5087AF",
"& 	c #EAEAF7",
"* 	c #6D91BC",
"= 	c #B5C9E3",
"- 	c #9CB8DC",
"; 	c #E7E9EC",
"> 	c #BFAE2C",
", 	c #C0AF2C",
"' 	c #DEE1E7",
") 	c #F1DC3A",
"! 	c #FBE227",
"~ 	c #1D35FD",
"{ 	c #7FA8DB",
"] 	c #D6DEE9",
"^ 	c #789AC3",
"/ 	c #D7CD82",
"( 	c #D0C77B",
"_ 	c #85ABDB",
": 	c #81A9DB",
"< 	c #1D34FC",
"[ 	c #F1DD4D",
"} 	c #D6CD86",
"| 	c #C4B54A",
"1 	c #FDE420",
"2 	c #D6CC81",
"3 	c #C2B345",
"4 	c #82A9DB",
"5 	c #80A9DB",
"6 	c #95B2D7",
"7 	c #DCD286",
"8 	c #CEC67D",
"9 	c #83AADB",
"0 	c #80A8DB",
"a 	c #7799C3",
"b 	c #7CA4D6",
"c 	c #94B1D6",
"d 	c #FD1F37",
"e 	c #2FF555",
"f 	c #C9D6D0",
"g 	c #8EB0DC",
"h 	c #6E92BD",
"i 	c #8AADDB",
"j 	c #7598C1",
"k 	c #7196C3",
"l 	c #8DAFDB",
"m 	c #79A1D0",
"n 	c #7295C0",
"o 	c #ADC4D5",
"p 	c #30F755",
"q 	c #1D34FA",
"r 	c #FDE322",
"s 	c #8BAFDC",
"t 	c #94B4DE",
"u 	c #31FA57",
"v 	c #91B2DC",
"w 	c #92B3DD",
"x 	c #95B4DC",
"y 	c #32FF58",
"z 	c #90AFD3",
"A 	c #5789B2",
"B 	c #739FCF",
"C 	c #82A9DC",
"D 	c #8DB0DC",
"E 	c #AAC0DC",
"F 	c #6A90BA",
"G 	c #5689B2",
"H 	c #5D8BB5",
"I 	c #FC1E37",
"J 	c #8CAFDC",
"K 	c #7095C2",
"L 	c #7397C3",
"M 	c #6C91BC",
"N 	c #5989B2",
"O 	c #698FBA",
"P 	c #84ABDB",
"Q 	c #8BAEDB",
"R 	c #87ACDB",
"S 	c #5388B0",
"T 	c #688FBA",
"U 	c #E2E8EA",
"V 	c #9CA0A2",
"W 	c #76797A",
"X 	c #618CB6",
"Y 	c #97B5DC",
"Z 	c #FB1E37",
"` 	c #9AA0A2",
" .	c #72787A",
"..	c #678FB9",
"+.	c #FD1E37",
"@.	c #333323",
"#.	c #6C643B",
"$.	c #957C4C",
"%.	c #866C44",
"&.	c #393B31",
"*.	c #696F6F",
"=.	c #464840",
"-.	c #6D6F6F",
";.	c #525454",
">.	c #515354",
",.	c #544C33",
". . + + + + . . . @ + + + + + + . . + + + + . . . @ + + + + + + ",
"+ # + + + # . . . . $ % + # + + + # + + + # . . . . @ + + # + + ",
"+ + + + + + + . . % & $ * + + + + + + + + + + . . . @ . + + + + ",
"+ . . + + + * * = $ & & * - * ; + . . > , + > > . . @ @ . + + + ",
"+ . . + ' * = = = $ & & % - - * ' . > ) ) > ) ) > . . @ @ . + + ",
"+ # + + - - * - ! $ & ~ $ = - * { * > ) ) ) ) ) > > . . . . @ @ ",
"@ @ + ] = ^ $ = = $ = $ = = = * - { * , ) ) ) > / ( > . . . . . ",
". . . _ : * $ < = = $ $ = ~ - = { - > [ ) ) ) ) > / } | . . . . ",
". . @ 1 { * - $ $ = ! $ - = - * - * > ) ) > ) ) > ( ( 2 3 + + . ",
"+ . * { 4 5 * $ = = = - - 6 * { * * = > > & > > > 7 8 > + # + + ",
"+ + * 9 0 0 : a * = * - - * b * c - = d $ $ e $ f > ( > { + + + ",
"+ % % g ~ { : { { * { h * { * i j * $ = = $ = $ = > > k - { + + ",
"% { * % - k l { { - { m { { * { n o = p = $ $ = = - = * - { + + ",
"+ % q % - { r { { ~ { { 1 { * s t * - $ = d $ = u = 6 * { { + + ",
"% - * * * % { { { - { { - * v u w x * = - = = - - = * b y { * + ",
". % * ! * * % % - - - * z A B 5 C D - * = E * - - * { { { { % + ",
". . * - { { * * % * - F * G H { { I J { K L { * * { - I { { % + ",
"+ % * * ~ * * * * * * M N d O * _ P { { Q R { { { { - * - % { * ",
"+ + + % * * - 1 * * * M S T * - { { { y { { d { { y { { - % { U ",
"+ . . % * % * * * * q * T A y * * { { { { { { _ { { { % * * - y ",
"+ . . V W * * % * * - * % X * { * % * % _ k _ _ Y % % * { Z * % ",
"+ # ` V  .% % % % * * * % ..* +.{ * * * % % Y * % * * { * - % @ ",
"@ @ V V W @.#.$.$.% * % $.* * * * y * * * * * * * * * y * * * . ",
". . . V W W @.#.$.$.%.$.$.#.@.* * * - d * * y * * d * * * . . . ",
". . @ @ V W W @.%.%.@.%.%.&.W * % * * * * * { * * * * % * + + . ",
"+ . . . @ V W W @.@.*.=.@.-.;.>.% * % * * - * * * % * % W V + + ",
"+ + + . . @ @ V V W W W ` ` V W W % #.* % * * % * #.% W W V + + ",
"+ + + + . . @ + V V V V ` + V V W @.$.$.$.% % $.$.$.@.W V V + + ",
"+ + + + + . . @ # + + + # + V V W ;.@.,.$.%.%.$.,.@.;.W V V + + ",
"+ # + + + . . @ + + + + + + + V V W W @.%.@.@.%.@.W W V V + + + ",
"+ + + + + . . . @ + + + + + + . V V W W @.W W @.W W V V + + + + ",
". . + + + . . . @ + + + + + + . . + V V W  .W W V V + + + + + # "};
