/* XPM */
static char * alberi_con_neve_belli_32_xpm[] = {
"32 32 81 1",
" 	c None",
".	c #D9E6E9",
"+	c #F0F0F0",
"@	c #C8E0E8",
"#	c #E5E9EA",
"$	c #CBDEE4",
"%	c #5087AF",
"&	c #EAEAF7",
"*	c #6D91BC",
"=	c #B5C9E3",
"-	c #9CB8DC",
";	c #E7E9EC",
">	c #DEE1E7",
",	c #7FA8DB",
"'	c #D6DEE9",
")	c #789AC3",
"!	c #85ABDB",
"~	c #81A9DB",
"{	c #82A9DB",
"]	c #80A9DB",
"^	c #95B2D7",
"/	c #83AADB",
"(	c #80A8DB",
"_	c #7799C3",
":	c #7CA4D6",
"<	c #94B1D6",
"[	c #A1BBDD",
"}	c #AAC0DC",
"|	c #8EB0DC",
"1	c #6E92BD",
"2	c #8AADDB",
"3	c #7598C1",
"4	c #7196C3",
"5	c #8DAFDB",
"6	c #79A1D0",
"7	c #7295C0",
"8	c #ADC4D5",
"9	c #8BAFDC",
"0	c #94B4DE",
"a	c #91B2DC",
"b	c #85ABDC",
"c	c #92B3DD",
"d	c #95B4DC",
"e	c #90AFD3",
"f	c #5789B2",
"g	c #739FCF",
"h	c #82A9DC",
"i	c #8DB0DC",
"j	c #6A90BA",
"k	c #5689B2",
"l	c #5D8BB5",
"m	c #84ABDB",
"n	c #8CAFDC",
"o	c #7095C2",
"p	c #7397C3",
"q	c #6C91BC",
"r	c #5989B2",
"s	c #698FBA",
"t	c #8BAEDB",
"u	c #87ACDB",
"v	c #5388B0",
"w	c #688FBA",
"x	c #E2E8EA",
"y	c #9CA0A2",
"z	c #76797A",
"A	c #618CB6",
"B	c #97B5DC",
"C	c #9AA0A2",
"D	c #72787A",
"E	c #678FB9",
"F	c #333323",
"G	c #6C643B",
"H	c #957C4C",
"I	c #866C44",
"J	c #393B31",
"K	c #696F6F",
"L	c #464840",
"M	c #6D6F6F",
"N	c #525454",
"O	c #515354",
"P	c #544C33",
"..++++...@++++++..++++...@++++++",
"+#+++#....$%+#+++#+++#....@++#++",
"+++++++..%&$*++++++++++...@.++++",
"+..+++**=$&&*-*;+..++++...@@.+++",
"+..+>*===$&&%--*>..++++....@@.++",
"+#++--*-=$&$$=-*,*+++#++......@@",
"@@+'=)$==$=$===*-,*++%$++.......",
"...!~*$-==$$=--=,-*+*$&%*++.....",
"..@,,*-$$=$$-=-*-**=*&&$***++++.",
"+.*,{]*$===--^*,**==%&&$%-**+#++",
"++*/((~_*=*--*:*<-==$$&$$[}*,+++",
"+%%|,,~,,*,1*,*23*$==$=$=-=4-,++",
"%,*%-45,,-,6,,*,78===$$==-=*-,++",
"+%,%-,,,,,,,,,*90*-$=$$=-=^*,,++",
"%-***%,,,-,,-*abcd*=-==--=*:-,*+",
".%*,**%%---*efg]hi-*=}*--*,,,,%+",
"..*-,,**%*-j*kl,,mn,op,**,-,,,%+",
"+%*********qrss*!m,,tu,,,,-*-%,*",
"+++%**-,***qvw*-,,,,,,,,,,,,-%,x",
"+..%*%****,*wf***,,,,,,!,,,%**-*",
"+..yz**%**-*%A*,*%*%!4!!B%%*,**%",
"+#CyD%%%%***%E**,***%%B*%**,*-%@",
"@@yyzFGHH%*%H******************.",
"...yzzFGHHIHHGF***-******-***...",
"..@@yzzFIIFIIJz*%*****,****%*++.",
"+...@yzzFFKLFMNO%*%**-***%*%zy++",
"+++..@@yyzzzCCyzz%G*%**%*G%zzy++",
"++++..@+yyyyC+yyzFHHH%%HHHFzyy++",
"+++++..@#+++#+yyzNFPHIIHPFNzyy++",
"+#+++..@+++++++yyzzFIFFIFzzyy+++",
"+++++...@++++++.yyzzFzzFzzyy++++",
"..+++...@++++++..+yyzDzzyy+++++#"};
